<?xml version="1.0" encoding="UTF-8"?>
<!DOCTYPE svg PUBLIC "-//W3C//DTD SVG 1.1//EN" "http://www.w3.org/Graphics/SVG/1.1/DTD/svg11.dtd">
<svg xmlns="http://www.w3.org/2000/svg" style="background-color: #ffffff;" xmlns:xlink="http://www.w3.org/1999/xlink" version="1.1" width="1000px" height="791px" viewBox="0 0 1000 791"><defs/><rect fill="#ffffff" width="100%" height="100%" x="0" y="0" style="fill: #ffffff;"/><g><g data-cell-id="0"><g data-cell-id="1"><g data-cell-id="title-group"><g transform="translate(0.5,0.5)"/><g data-cell-id="title-text"><g transform="translate(0.5,0.5)"><rect x="0" y="0" width="800" height="42" fill="none" stroke="none" pointer-events="all"/></g><g><g><text x="2" y="33" fill="#000000" font-family="Helvetica" font-size="30px"><tspan x="2" font-weight="bold">S3 Bucket Layout</tspan></text></g></g></g><g data-cell-id="subtitle-text"><g transform="translate(0.5,0.5)"><rect x="5" y="40" width="800" height="25" fill="none" stroke="none" pointer-events="all"/></g><g><g><text x="7" y="59" fill="#000000" font-family="Helvetica" font-size="16px"><tspan x="7">AQI Pipeline prefix structure in aqi-pipeline-bucket</tspan></text></g></g></g><g data-cell-id="title-separator"><g><path d="M 5 75 L 995 75" fill="none" stroke="#ff9900" stroke-width="2" stroke-miterlimit="10" pointer-events="all"/></g></g></g><g data-cell-id="users-container"><g transform="translate(0.5,0.5)"><rect x="10" y="170" width="120" height="98" rx="14.7" ry="14.7" fill="#f5f5f5" stroke="#666666" pointer-events="all"/></g><g><g><text x="70" y="189" fill="#333333" font-family="Helvetica" font-size="12px" text-anchor="middle"><tspan x="70" font-weight="bold">Data Engineer</tspan></text></g></g><g data-cell-id="users-icon"><g transform="translate(0.5,0.5)"><path d="M 46 200 L 94 200 L 94 248 L 46 248 Z" fill="#232f3d" stroke="none" pointer-events="all"/><path d="M 74.05 211.16 C 74.05 208.61 76.15 206.55 78.74 206.55 C 81.33 206.55 83.44 208.61 83.44 211.16 C 83.44 213.7 81.33 215.77 78.74 215.77 C 76.15 215.77 74.05 213.7 74.05 211.16 Z M 84.11 217.31 C 83.54 216.96 82.95 216.67 82.33 216.44 C 84.05 215.29 85.18 213.35 85.18 211.16 C 85.18 207.65 82.29 204.8 78.74 204.8 C 75.19 204.8 72.3 207.65 72.3 211.16 C 72.3 213.35 73.43 215.28 75.14 216.43 C 74.03 216.85 72.98 217.47 72.05 218.26 L 73.19 219.59 C 74.74 218.25 76.71 217.52 78.73 217.52 C 80.3 217.52 81.84 217.96 83.19 218.79 C 85.58 220.28 87.15 222.89 87.41 225.75 L 78.73 225.75 L 78.73 227.49 L 88.33 227.49 C 88.81 227.49 89.2 227.1 89.2 226.62 C 89.2 222.83 87.25 219.26 84.11 217.31 Z M 56.59 211.16 C 56.59 208.61 58.7 206.55 61.29 206.55 C 63.88 206.55 65.98 208.61 65.98 211.16 C 65.98 213.7 63.88 215.77 61.29 215.77 C 58.7 215.77 56.59 213.7 56.59 211.16 Z M 61.27 225.75 L 52.59 225.75 C 53.01 221.13 56.74 217.52 61.27 217.52 C 62.85 217.52 64.39 217.96 65.73 218.79 C 66.11 219.03 66.47 219.29 66.81 219.59 L 67.95 218.26 C 67.54 217.91 67.11 217.59 66.65 217.31 C 66.09 216.96 65.49 216.67 64.88 216.44 C 66.59 215.29 67.73 213.35 67.73 211.16 C 67.73 207.65 64.84 204.8 61.29 204.8 C 57.74 204.8 54.85 207.65 54.85 211.16 C 54.85 213.35 55.98 215.29 57.7 216.44 C 53.68 217.95 50.8 221.94 50.8 226.62 C 50.8 227.1 51.19 227.49 51.67 227.49 L 61.27 227.49 Z M 61.31 241.45 C 61.74 236.84 65.47 233.23 70 233.23 C 71.57 233.23 73.11 233.67 74.46 234.5 C 76.85 235.99 78.42 238.6 78.69 241.45 Z M 65.32 226.87 C 65.32 224.32 67.43 222.25 70.02 222.25 C 72.61 222.25 74.71 224.32 74.71 226.87 C 74.71 229.41 72.61 231.48 70.02 231.48 C 67.43 231.48 65.32 229.41 65.32 226.87 Z M 75.38 233.02 C 74.81 232.67 74.22 232.38 73.6 232.15 C 75.32 231 76.46 229.06 76.46 226.87 C 76.46 223.36 73.57 220.51 70.02 220.51 C 66.47 220.51 63.58 223.36 63.58 226.87 C 63.58 229.06 64.71 231 66.43 232.14 C 62.41 233.66 59.53 237.65 59.53 242.33 C 59.53 242.81 59.92 243.2 60.4 243.2 L 79.6 243.2 C 80.08 243.2 80.47 242.81 80.47 242.33 C 80.47 238.54 78.52 234.97 75.38 233.02 Z" fill="#ffffff" stroke="none" pointer-events="all"/></g></g></g><g data-cell-id="firehose-group"><g><rect x="10" y="300" width="120" height="120" rx="18" ry="18" fill="#ede7f6" stroke="#8c4fff" stroke-width="1.5" pointer-events="all"/></g><g><g><text x="70" y="319" fill="#8C4FFF" font-family="Helvetica" font-size="12px" text-anchor="middle"><tspan x="70" font-weight="bold">Streaming</tspan></text></g></g><g data-cell-id="firehose-icon"><g transform="translate(0.5,0.5)"><path d="M 46 330 L 94 330 L 94 378 L 46 378 Z" fill="#8c4fff" stroke="none" pointer-events="all"/><path d="M 89.2 356.93 L 88.66 358.29 C 86.33 357.35 83.48 356.88 80.2 356.88 L 80.2 355.42 C 83.67 355.42 86.69 355.93 89.2 356.93 Z M 88.7 356.11 C 86.58 355.41 82.29 354.69 80.2 354.69 L 80.2 353.23 C 82.31 353.23 86.58 352.51 88.67 351.81 L 89.13 353.19 C 88.33 353.46 87.26 353.73 86.1 353.96 C 87.27 354.2 88.36 354.46 89.16 354.73 Z M 89.19 350.99 C 86.58 351.99 83.55 352.5 80.2 352.5 L 80.2 351.04 C 83.37 351.04 86.22 350.57 88.67 349.63 Z M 77.25 356.31 L 69.96 358.13 L 69.96 349.79 L 77.25 351.61 Z M 68.5 359.8 L 66.31 359.8 L 66.31 348.12 L 68.5 348.12 L 68.5 348.85 L 68.5 359.07 Z M 78.16 350.33 L 69.96 348.28 L 69.96 347.39 C 69.96 346.99 69.63 346.66 69.23 346.66 L 65.58 346.66 C 65.18 346.66 64.85 346.99 64.85 347.39 L 64.85 348.07 C 53.76 347.26 52.45 342.74 52.45 339.37 L 52.45 335.72 L 50.99 335.72 L 50.99 339.37 C 50.99 345.55 55.53 348.87 64.85 349.53 L 64.85 350.29 C 59.19 350.06 55.12 349.16 52.1 347.49 L 51.39 348.76 C 54.63 350.56 58.92 351.51 64.85 351.75 L 64.85 353.22 C 60.73 353.12 55.15 352.84 51.17 351.8 L 50.8 353.21 C 51.99 353.52 53.32 353.77 54.7 353.96 C 53.32 354.16 51.99 354.4 50.8 354.71 L 51.17 356.13 C 55.15 355.08 60.73 354.8 64.85 354.71 L 64.85 356.18 C 58.95 356.41 54.66 357.36 51.4 359.16 L 52.1 360.44 C 55.15 358.76 59.22 357.87 64.85 357.64 L 64.85 358.39 C 52.81 359.27 50.99 365.56 50.99 369.28 L 50.98 369.57 C 50.97 371.92 50.98 372.18 50.99 372.28 L 52.44 372.15 C 52.44 372.01 52.44 371.15 52.44 369.58 L 52.45 369.28 C 52.45 363.72 56.74 360.48 64.85 359.86 L 64.85 360.53 C 64.85 360.93 65.18 361.26 65.58 361.26 L 69.23 361.26 C 69.63 361.26 69.96 360.93 69.96 360.53 L 69.96 359.64 L 78.16 357.59 C 78.49 357.51 78.71 357.21 78.71 356.88 L 78.71 351.04 C 78.71 350.71 78.49 350.42 78.16 350.33 Z" fill="#ffffff" stroke="none" pointer-events="all"/></g><g><g><text x="70" y="395" fill="#232F3E" font-family="Helvetica" font-size="10px" text-anchor="middle"><tspan x="70">Data Firehose</tspan><tspan x="70" dy="1.2em" font-style="italic">Workflow A</tspan></text></g></g></g></g><g data-cell-id="flink-group"><g><rect x="10" y="485" width="120" height="120" rx="18" ry="18" fill="#ede7f6" stroke="#8c4fff" stroke-width="1.5" pointer-events="all"/></g><g><g><text x="70" y="504" fill="#8C4FFF" font-family="Helvetica" font-size="12px" text-anchor="middle"><tspan x="70" font-weight="bold">Analytics</tspan></text></g></g><g data-cell-id="flink-icon"><g transform="translate(0.5,0.5)"><path d="M 46 515 L 94 515 L 94 563 L 46 563 Z" fill="#8c4fff" stroke="none" pointer-events="all"/><path d="M 73.4 531.43 C 73.4 533.35 71.85 534.9 69.93 534.9 C 68.02 534.9 66.47 533.35 66.47 531.43 C 66.47 529.52 68.02 527.96 69.93 527.96 C 71.85 527.96 73.4 529.52 73.4 531.43 Z M 74.88 531.43 C 74.88 528.71 72.66 526.49 69.93 526.49 C 67.21 526.49 64.99 528.71 64.99 531.43 C 64.99 534.16 67.21 536.38 69.93 536.38 C 72.66 536.38 74.88 534.16 74.88 531.43 Z M 68.72 540.09 C 68.74 539.73 68.49 539.41 68.14 539.33 C 67.25 539.13 66.4 538.77 65.62 538.28 C 65.31 538.09 64.91 538.14 64.67 538.41 L 64.05 539.11 L 62.26 537.31 L 62.95 536.69 C 63.22 536.45 63.28 536.05 63.08 535.75 C 62.59 534.97 62.24 534.12 62.04 533.22 C 61.96 532.87 61.62 532.63 61.28 532.65 L 60.35 532.7 L 60.35 530.16 L 61.28 530.22 C 61.64 530.23 61.96 529.99 62.04 529.64 C 62.25 528.75 62.6 527.9 63.09 527.12 C 63.28 526.82 63.23 526.42 62.96 526.18 L 62.26 525.55 L 64.05 523.76 L 64.68 524.46 C 64.92 524.72 65.32 524.78 65.62 524.59 C 66.4 524.1 67.25 523.75 68.14 523.55 C 68.49 523.47 68.74 523.14 68.72 522.78 L 68.66 521.85 L 71.21 521.85 L 71.15 522.78 C 71.13 523.15 71.37 523.47 71.73 523.55 C 72.62 523.75 73.47 524.1 74.24 524.59 C 74.55 524.78 74.95 524.73 75.19 524.46 L 75.81 523.76 L 77.61 525.55 L 76.91 526.18 C 76.64 526.42 76.59 526.82 76.78 527.12 C 77.27 527.9 77.62 528.74 77.83 529.64 C 77.9 529.99 78.25 530.23 78.59 530.22 L 79.52 530.16 L 79.52 532.7 L 78.59 532.65 C 78.25 532.63 77.9 532.87 77.83 533.22 C 77.62 534.12 77.27 534.97 76.78 535.75 C 76.59 536.05 76.65 536.45 76.91 536.69 L 77.61 537.31 L 75.81 539.11 L 75.19 538.42 C 74.95 538.15 74.55 538.09 74.25 538.28 C 73.47 538.78 72.62 539.13 71.73 539.33 C 71.37 539.41 71.13 539.73 71.15 540.09 L 71.21 541.02 L 68.66 541.02 Z M 72.52 542.26 C 72.66 542.12 72.73 541.92 72.72 541.72 L 72.66 540.61 C 73.3 540.42 73.91 540.17 74.5 539.85 L 75.23 540.68 C 75.37 540.83 75.56 540.92 75.76 540.92 C 75.96 540.93 76.16 540.85 76.31 540.71 L 79.21 537.8 C 79.35 537.66 79.43 537.46 79.42 537.26 C 79.42 537.06 79.33 536.87 79.18 536.73 L 78.35 535.99 C 78.66 535.41 78.92 534.79 79.11 534.16 L 80.22 534.22 C 80.42 534.23 80.62 534.16 80.76 534.02 C 80.91 533.88 81 533.69 81 533.48 L 81 529.38 C 81 529.18 80.91 528.98 80.76 528.85 C 80.62 528.71 80.42 528.64 80.22 528.64 L 79.1 528.71 C 78.92 528.07 78.66 527.46 78.35 526.88 L 79.18 526.13 C 79.33 526 79.42 525.81 79.42 525.6 C 79.43 525.4 79.35 525.2 79.21 525.06 L 76.31 522.16 C 76.16 522.02 75.96 521.94 75.76 521.94 C 75.56 521.95 75.37 522.04 75.23 522.19 L 74.49 523.02 C 73.91 522.71 73.29 522.45 72.66 522.27 L 72.72 521.15 C 72.73 520.95 72.66 520.75 72.52 520.6 C 72.38 520.45 72.19 520.37 71.99 520.37 L 67.88 520.37 C 67.68 520.37 67.49 520.45 67.35 520.6 C 67.21 520.75 67.13 520.95 67.15 521.15 L 67.21 522.26 C 66.57 522.45 65.96 522.71 65.38 523.02 L 64.63 522.19 C 64.5 522.04 64.31 521.95 64.11 521.94 C 63.9 521.94 63.71 522.02 63.56 522.16 L 60.66 525.06 C 60.52 525.2 60.44 525.4 60.45 525.6 C 60.45 525.81 60.54 526 60.69 526.13 L 61.53 526.88 C 61.21 527.46 60.95 528.07 60.76 528.71 L 59.65 528.64 C 59.45 528.63 59.25 528.71 59.1 528.85 C 58.95 528.98 58.87 529.18 58.87 529.38 L 58.87 533.48 C 58.87 533.69 58.95 533.88 59.1 534.02 C 59.25 534.16 59.45 534.23 59.65 534.22 L 60.76 534.16 C 60.95 534.8 61.2 535.41 61.52 535.99 L 60.69 536.73 C 60.54 536.87 60.45 537.06 60.45 537.26 C 60.44 537.46 60.52 537.66 60.66 537.8 L 63.56 540.71 C 63.71 540.85 63.9 540.93 64.11 540.92 C 64.31 540.92 64.5 540.83 64.63 540.68 L 65.37 539.85 C 65.96 540.17 66.57 540.42 67.21 540.61 L 67.15 541.72 C 67.13 541.92 67.21 542.12 67.35 542.26 C 67.49 542.41 67.68 542.49 67.88 542.49 L 71.99 542.49 C 72.19 542.49 72.38 542.41 72.52 542.26 Z M 73.72 546.37 L 74.73 545.5 C 76.2 544.22 78.77 544.21 80.25 545.5 L 81.25 546.37 C 83.27 548.13 86.68 548.14 88.7 546.37 L 89.2 545.94 L 88.23 544.82 L 87.73 545.26 C 86.26 546.54 83.69 546.54 82.21 545.25 L 81.21 544.39 C 79.19 542.62 75.78 542.62 73.76 544.39 L 72.76 545.26 C 71.29 546.54 68.71 546.54 67.24 545.25 L 66.24 544.39 C 64.22 542.62 60.81 542.62 58.79 544.39 L 57.78 545.26 C 56.31 546.54 53.74 546.54 52.27 545.25 L 51.77 544.82 L 50.8 545.94 L 51.3 546.37 C 53.32 548.13 56.73 548.14 58.75 546.37 L 59.76 545.5 C 61.22 544.22 63.8 544.21 65.27 545.5 L 66.27 546.37 C 67.28 547.25 68.64 547.69 70 547.69 C 71.36 547.69 72.72 547.25 73.72 546.37 Z M 73.72 555.86 L 74.73 554.99 C 76.2 553.71 78.77 553.71 80.25 554.99 L 81.25 555.86 C 83.27 557.63 86.68 557.63 88.7 555.86 L 89.2 555.43 L 88.23 554.31 L 87.73 554.75 C 86.26 556.04 83.69 556.04 82.21 554.75 L 81.21 553.88 C 79.19 552.11 75.78 552.11 73.76 553.88 L 72.76 554.75 C 71.29 556.04 68.71 556.04 67.24 554.75 L 66.24 553.88 C 64.22 552.11 60.81 552.11 58.79 553.88 L 57.78 554.75 C 56.31 556.04 53.74 556.04 52.27 554.75 L 51.77 554.31 L 50.8 555.43 L 51.3 555.86 C 53.32 557.63 56.73 557.63 58.75 555.86 L 59.76 554.99 C 61.22 553.71 63.8 553.71 65.27 554.99 L 66.27 555.86 C 67.28 556.74 68.64 557.19 70 557.19 C 71.36 557.19 72.72 556.75 73.72 555.86 Z M 70 552.44 C 68.64 552.44 67.28 552 66.27 551.11 L 65.27 550.25 C 63.8 548.96 61.22 548.96 59.76 550.24 L 58.75 551.12 C 56.73 552.88 53.32 552.88 51.3 551.11 L 50.8 550.68 L 51.77 549.57 L 52.27 550 C 53.74 551.29 56.31 551.29 57.78 550 L 58.79 549.13 C 60.81 547.37 64.22 547.37 66.24 549.14 L 67.24 550 C 68.71 551.29 71.29 551.29 72.76 550 L 73.76 549.13 C 75.78 547.37 79.19 547.37 81.21 549.14 L 82.21 550 C 83.69 551.29 86.26 551.29 87.73 550 L 88.23 549.57 L 89.2 550.68 L 88.7 551.12 C 86.68 552.88 83.27 552.88 81.25 551.11 L 80.25 550.25 C 78.77 548.96 76.2 548.96 74.73 550.24 L 73.72 551.12 C 72.72 552 71.36 552.44 70 552.44 Z" fill="#ffffff" stroke="none" pointer-events="all"/></g><g><g><text x="70" y="580" fill="#232F3E" font-family="Helvetica" font-size="10px" text-anchor="middle"><tspan x="70">Apache Flink</tspan><tspan x="70" dy="1.2em" font-style="italic">Workflow B</tspan></text></g></g></g></g><g data-cell-id="athena-group"><g><rect x="10" y="650" width="120" height="120" rx="18" ry="18" fill="#ede7f6" stroke="#8c4fff" stroke-width="1.5" pointer-events="all"/></g><g><g><text x="70" y="669" fill="#8C4FFF" font-family="Helvetica" font-size="12px" text-anchor="middle"><tspan x="70" font-weight="bold">Query</tspan></text></g></g><g data-cell-id="athena-icon"><g transform="translate(0.5,0.5)"><path d="M 46 680 L 94 680 L 94 728 L 46 728 Z" fill="#8c4fff" stroke="none" pointer-events="all"/><path d="M 68.56 695.36 C 71.49 695.36 73.09 696.02 73.38 696.35 C 73.09 696.67 71.49 697.33 68.56 697.33 C 65.64 697.33 64.04 696.67 63.75 696.35 C 64.04 696.02 65.64 695.36 68.56 695.36 Z M 68.23 700.6 C 68.12 700.55 68.05 700.44 68.05 700.31 C 68.05 700.13 68.2 699.98 68.38 699.98 C 68.43 699.98 68.48 699.99 68.52 700.02 Z M 72 706.01 C 71.95 706.05 71.84 706.13 71.61 706.22 C 71.4 706.3 71.16 706.37 70.89 706.44 C 70.16 706.61 69.27 706.7 68.38 706.7 C 66.42 706.7 65.05 706.28 64.76 706.02 L 63.89 697.92 C 65.22 698.46 67.18 698.64 68.56 698.64 C 69.92 698.64 71.84 698.46 73.17 697.94 L 72.65 701.5 C 71.67 701.14 70.45 700.6 69.3 700.04 C 69.18 699.63 68.81 699.33 68.38 699.33 C 67.84 699.33 67.41 699.77 67.41 700.31 C 67.41 700.85 67.84 701.29 68.38 701.29 C 68.5 701.29 68.62 701.26 68.73 701.22 C 70.35 702.02 71.55 702.53 72.46 702.84 Z M 62.43 696.42 L 63.48 706.18 C 63.55 707.99 68.18 708.01 68.38 708.01 C 69.37 708.01 70.36 707.91 71.18 707.72 C 71.52 707.64 71.82 707.54 72.08 707.44 C 72.85 707.13 73.25 706.71 73.27 706.2 L 73.71 703.2 C 74.01 703.26 74.25 703.29 74.44 703.29 C 75.05 703.29 75.21 703.04 75.32 702.87 C 75.44 702.69 75.47 702.47 75.42 702.24 C 75.29 701.73 74.57 701.05 74.08 700.65 L 74.69 696.44 L 74.69 696.44 C 74.69 696.41 74.7 696.38 74.7 696.35 C 74.7 694.53 70.84 694.05 68.56 694.05 C 66.28 694.05 62.43 694.53 62.43 696.35 C 62.43 696.37 62.44 696.39 62.44 696.42 Z M 68.27 690.7 C 73.9 690.7 78.48 695.35 78.48 701.06 C 78.48 706.78 73.9 711.43 68.27 711.43 C 62.63 711.43 58.05 706.78 58.05 701.06 C 58.05 695.35 62.63 690.7 68.27 690.7 Z M 52.09 704.87 L 52.09 706.18 L 57.91 706.18 L 57.91 706.1 C 59.76 710.02 63.7 712.74 68.27 712.74 C 74.61 712.74 79.77 707.5 79.77 701.06 C 79.77 694.62 74.61 689.39 68.27 689.39 C 63.33 689.39 59.12 692.56 57.49 697 L 52.09 697 L 52.09 698.31 L 57.1 698.31 C 56.9 699.16 56.78 700.03 56.77 700.93 L 50.8 700.93 L 50.8 702.25 L 56.82 702.25 C 56.91 703.16 57.12 704.03 57.4 704.87 Z M 87.3 720.62 C 86.52 721.41 85.16 721.42 84.38 720.63 L 77.44 713.58 C 78.56 712.74 79.55 711.74 80.41 710.62 L 87.31 717.66 C 87.69 718.05 87.91 718.58 87.91 719.14 C 87.91 719.7 87.69 720.22 87.3 720.62 Z M 88.22 716.73 L 81.17 709.54 C 82.73 707.1 83.64 704.19 83.64 701.06 C 83.64 692.45 76.74 685.45 68.27 685.45 C 62.17 685.45 56.65 689.11 54.19 694.77 L 55.37 695.3 C 57.62 690.11 62.68 686.76 68.27 686.76 C 76.03 686.76 82.35 693.18 82.35 701.06 C 82.35 708.94 76.03 715.36 68.27 715.36 C 63.08 715.36 58.32 712.48 55.86 707.84 L 54.72 708.46 C 57.41 713.52 62.6 716.67 68.27 716.67 C 71.23 716.67 74 715.81 76.35 714.33 L 83.47 721.55 C 84.1 722.19 84.94 722.55 85.83 722.55 C 86.73 722.55 87.58 722.19 88.21 721.55 C 88.85 720.91 89.2 720.05 89.2 719.14 C 89.2 718.23 88.85 717.37 88.22 716.73 Z" fill="#ffffff" stroke="none" pointer-events="all"/></g><g><g><text x="70" y="745" fill="#232F3E" font-family="Helvetica" font-size="10px" text-anchor="middle"><tspan x="70">Amazon Athena</tspan><tspan x="70" dy="1.2em" font-style="italic">query output</tspan></text></g></g></g></g><g data-cell-id="s3-bucket-boundary"><g><rect x="280" y="98" width="700" height="692" rx="103.8" ry="103.8" fill="#e8f5e9" stroke="#3f8624" stroke-width="2" pointer-events="all"/></g><g><g><text x="630" y="120" fill="#3F8624" font-family="Helvetica" font-size="15px" text-anchor="middle"><tspan x="630" font-weight="bold">aqi-pipeline-bucket  /  aqi_pipeline/</tspan></text></g></g></g><g data-cell-id="s3-bucket-icon"><g transform="translate(0.5,0.5)"><path d="M 439 106 L 487 106 L 487 154 L 439 154 Z" fill="#3f8624" stroke="none" pointer-events="all"/><path d="M 477.33 131.98 L 477.59 130.13 C 480.02 131.58 480.05 132.18 480.05 132.2 C 480.05 132.2 479.63 132.55 477.33 131.98 Z M 475.99 131.61 C 471.8 130.34 465.95 127.66 463.59 126.54 C 463.59 126.54 463.59 126.53 463.59 126.52 C 463.59 125.61 462.85 124.87 461.94 124.87 C 461.04 124.87 460.3 125.61 460.3 126.52 C 460.3 127.43 461.04 128.16 461.94 128.16 C 462.34 128.16 462.7 128.02 462.99 127.78 C 465.77 129.1 471.57 131.74 475.8 132.99 L 474.13 144.78 C 474.12 144.82 474.12 144.85 474.12 144.88 C 474.12 145.92 469.52 147.83 462.01 147.83 C 454.41 147.83 449.77 145.92 449.77 144.88 C 449.77 144.85 449.76 144.82 449.76 144.79 L 446.27 119.27 C 449.29 121.36 455.79 122.46 462.01 122.46 C 468.22 122.46 474.71 121.36 477.74 119.29 Z M 445.9 116.61 C 445.95 115.71 451.13 112.17 462.01 112.17 C 472.89 112.17 478.08 115.71 478.13 116.61 L 478.13 116.92 C 477.53 118.94 470.81 121.09 462.01 121.09 C 453.2 121.09 446.47 118.94 445.9 116.91 Z M 479.5 116.63 C 479.5 114.25 472.69 110.8 462.01 110.8 C 451.34 110.8 444.53 114.25 444.53 116.63 L 444.59 117.15 L 448.39 144.93 C 448.49 148.04 456.77 149.2 462.01 149.2 C 468.5 149.2 475.4 147.71 475.49 144.94 L 477.13 133.35 C 478.05 133.57 478.8 133.68 479.41 133.68 C 480.22 133.68 480.76 133.48 481.1 133.09 C 481.37 132.76 481.47 132.37 481.4 131.95 C 481.22 131 480.09 129.98 477.8 128.67 L 479.43 117.17 Z" fill="#ffffff" stroke="none" pointer-events="all"/></g><g><g><text x="463" y="171" fill="#232F3E" font-family="Helvetica" font-size="10px" text-anchor="middle"><tspan x="463">Amazon S3</tspan></text></g></g></g><g data-cell-id="folder-source"><g><rect x="310" y="180" width="640" height="78" rx="11.7" ry="11.7" fill="#e8f5e9" stroke="#3f8624" stroke-width="1.5" pointer-events="all"/></g><g><g><text x="322" y="203" fill="#000000" font-family="Helvetica" font-size="11px"><tspan x="322" font-weight="bold">source_data/</tspan><tspan x="322" dy="1.2em" font-style="italic">Upload AQI CSVs here</tspan><tspan x="322" dy="1.2em">openaq_location_6946_measurment.csv</tspan></text></g></g></g><g data-cell-id="folder-raw"><g><rect x="310" y="310" width="640" height="100" rx="15" ry="15" fill="#fff2e8" stroke="#ed7100" stroke-width="1.5" pointer-events="all"/></g><g><g><text x="322" y="333" fill="#000000" font-family="Helvetica" font-size="11px"><tspan x="322" font-weight="bold">rawingestion/</tspan><tspan x="322" dy="1.2em" font-style="italic">Firehose writes raw JSON here (auto-partitioned)</tspan><tspan x="322" dy="1.2em">YYYY/MM/DD/HH/AQI_Batch-1-*.json</tspan><tspan x="322" dy="1.2em">Workflow A - untransformed archive</tspan></text></g></g></g><g data-cell-id="folder-flink"><g><rect x="310" y="480" width="640" height="130" rx="19.5" ry="19.5" fill="#fce4ec" stroke="#e7157b" stroke-width="1.5" pointer-events="all"/></g><g><g><text x="322" y="503" fill="#000000" font-family="Helvetica" font-size="11px"><tspan x="322" font-weight="bold">flink_output/</tspan><tspan x="322" dy="1.2em" font-style="italic">Workflow B - enriched output from Flink</tspan></text></g></g></g><g data-cell-id="folder-co-measurements"><g transform="translate(0.5,0.5)"><rect x="323" y="543" width="570" height="50" rx="7.5" ry="7.5" fill="#e8f5e9" stroke="#3f8624" pointer-events="all"/></g><g><g><text x="335" y="571" fill="#000000" font-family="Helvetica" font-size="11px"><tspan x="335" font-weight="bold">co-measurements/</tspan><tspan font-style="italic" xml:space="preserve"> Flink writes enriched JSON here (+2 computed columns)</tspan></text></g></g></g><g data-cell-id="folder-athena"><g><rect x="310" y="675" width="640" height="70" rx="10.5" ry="10.5" fill="#e3f2fd" stroke="#1565c0" stroke-width="1.5" pointer-events="all"/></g><g><g><text x="322" y="698" fill="#000000" font-family="Helvetica" font-size="11px"><tspan x="322" font-weight="bold">athena-results/</tspan><tspan x="322" dy="1.2em" font-style="italic">Athena stores query output here (both raw + enriched queries)</tspan></text></g></g></g><g data-cell-id="edge-user-source"><g><path d="M 130 219 L 301.76 219" fill="none" stroke="#3f8624" stroke-width="2" stroke-miterlimit="10" pointer-events="stroke"/><path d="M 307.76 219 L 299.76 223 L 301.76 219 L 299.76 215 Z" fill="#3f8624" stroke="#3f8624" stroke-width="2" stroke-miterlimit="10" pointer-events="all"/></g><g data-cell-id="edge-user-source-label"><g><g><text x="200" y="233" fill="#000000" font-family="Helvetica" font-size="11px" text-anchor="middle"><tspan x="200">uploads CSVs</tspan></text></g></g></g></g><g data-cell-id="edge-firehose-raw"><g><path d="M 130 360 L 301.76 360" fill="none" stroke="#ed7100" stroke-width="2" stroke-miterlimit="10" pointer-events="stroke"/><path d="M 307.76 360 L 299.76 364 L 301.76 360 L 299.76 356 Z" fill="#ed7100" stroke="#ed7100" stroke-width="2" stroke-miterlimit="10" pointer-events="all"/></g><g data-cell-id="edge-firehose-raw-label"><g><g><text x="188" y="375" fill="#000000" font-family="Helvetica" font-size="11px" text-anchor="middle"><tspan x="188">writes JSON</tspan></text></g></g></g></g><g data-cell-id="edge-flink-output"><g><path d="M 130 545 L 301.76 545" fill="none" stroke="#e7157b" stroke-width="2" stroke-miterlimit="10" pointer-events="stroke"/><path d="M 307.76 545 L 299.76 549 L 301.76 545 L 299.76 541 Z" fill="#e7157b" stroke="#e7157b" stroke-width="2" stroke-miterlimit="10" pointer-events="all"/></g><g data-cell-id="edge-flink-output-label"><g><g><text x="195" y="564" fill="#000000" font-family="Helvetica" font-size="11px" text-anchor="middle"><tspan x="195">writes enriched JSON</tspan></text></g></g></g></g><g data-cell-id="edge-athena-results"><g><path d="M 130 710 L 301.76 710" fill="none" stroke="#1565c0" stroke-width="2" stroke-miterlimit="10" pointer-events="stroke"/><path d="M 307.76 710 L 299.76 714 L 301.76 710 L 299.76 706 Z" fill="#1565c0" stroke="#1565c0" stroke-width="2" stroke-miterlimit="10" pointer-events="all"/></g><g data-cell-id="edge-athena-results-label"><g><g><text x="201" y="732" fill="#000000" font-family="Helvetica" font-size="11px" text-anchor="middle"><tspan x="201">stores query output</tspan></text></g></g></g></g></g></g></g></svg>