<?xml version="1.0" encoding="UTF-8"?>
<!DOCTYPE svg PUBLIC "-//W3C//DTD SVG 1.1//EN" "http://www.w3.org/Graphics/SVG/1.1/DTD/svg11.dtd">
<svg xmlns="http://www.w3.org/2000/svg" style="background: #ffffff; background-color: #ffffff);" xmlns:xlink="http://www.w3.org/1999/xlink" version="1.1" width="1400px" height="1409px" viewBox="0 0 1400 1409"><defs/><rect fill="#ffffff" width="100%" height="100%" x="0" y="0" style="fill: #ffffff);"/><g><g data-cell-id="0"><g data-cell-id="1"><g data-cell-id="title-group"><g transform="translate(0.5,0.5)"/><g data-cell-id="title-text"><g transform="translate(0.5,0.5)"><rect x="0" y="0" width="900" height="42" fill="none" stroke="none" pointer-events="all"/></g><g><g><text x="2" y="33" fill="#000000" font-family="Helvetica" font-size="30px"><tspan x="2" font-weight="bold">The Firehose Workflow — Zero-Code Raw Data Delivery</tspan></text></g></g></g><g data-cell-id="subtitle-text"><g transform="translate(0.5,0.5)"><rect x="5" y="40" width="800" height="25" fill="none" stroke="none" pointer-events="all"/></g><g><g><text x="7" y="59" fill="#000000" font-family="Helvetica" font-size="16px"><tspan x="7">Reads from Kinesis, buffers, delivers to S3 — no transformations, no schemas, no code</tspan></text></g></g></g><g data-cell-id="title-sep"><g><path d="M 5 75 L 1395 75" fill="none" stroke="#ff9900" stroke-width="2" stroke-miterlimit="10" pointer-events="all"/></g></g></g><g data-cell-id="s3src-g"><g><rect x="340" y="100" width="120" height="120" rx="18" ry="18" fill="#e8f5e9" stroke="#3f8624" stroke-width="1.5" pointer-events="all"/></g><g><g><text x="400" y="119" fill="#3F8624" font-family="Helvetica" font-size="12px" text-anchor="middle"><tspan x="400" font-weight="bold">Source</tspan></text></g></g><g data-cell-id="s3src"><g transform="translate(0.5,0.5)"><path d="M 376 130 L 424 130 L 424 178 L 376 178 Z" fill="#3f8624" stroke="none" pointer-events="all"/><path d="M 414.33 155.98 L 414.59 154.13 C 417.02 155.58 417.05 156.18 417.05 156.2 C 417.05 156.2 416.63 156.55 414.33 155.98 Z M 412.99 155.61 C 408.8 154.34 402.95 151.66 400.59 150.54 C 400.59 150.54 400.59 150.53 400.59 150.52 C 400.59 149.61 399.85 148.87 398.94 148.87 C 398.04 148.87 397.3 149.61 397.3 150.52 C 397.3 151.43 398.04 152.16 398.94 152.16 C 399.34 152.16 399.7 152.02 399.99 151.78 C 402.77 153.1 408.57 155.74 412.8 156.99 L 411.13 168.78 C 411.12 168.82 411.12 168.85 411.12 168.88 C 411.12 169.92 406.52 171.83 399.01 171.83 C 391.41 171.83 386.77 169.92 386.77 168.88 C 386.77 168.85 386.76 168.82 386.76 168.79 L 383.27 143.27 C 386.29 145.36 392.79 146.46 399.01 146.46 C 405.22 146.46 411.71 145.36 414.74 143.29 Z M 382.9 140.61 C 382.95 139.71 388.13 136.17 399.01 136.17 C 409.89 136.17 415.08 139.71 415.13 140.61 L 415.13 140.92 C 414.53 142.94 407.81 145.09 399.01 145.09 C 390.2 145.09 383.47 142.94 382.9 140.91 Z M 416.5 140.63 C 416.5 138.25 409.69 134.8 399.01 134.8 C 388.34 134.8 381.53 138.25 381.53 140.63 L 381.59 141.15 L 385.39 168.93 C 385.49 172.04 393.77 173.2 399.01 173.2 C 405.5 173.2 412.4 171.71 412.49 168.94 L 414.13 157.35 C 415.05 157.57 415.8 157.68 416.41 157.68 C 417.22 157.68 417.76 157.48 418.1 157.09 C 418.37 156.76 418.47 156.37 418.4 155.95 C 418.22 155 417.09 153.98 414.8 152.67 L 416.43 141.17 Z" fill="#ffffff" stroke="none" pointer-events="all"/></g><g><g><text x="400" y="195" fill="#232F3E" font-family="Helvetica" font-size="10px" text-anchor="middle"><tspan x="400">Amazon S3</tspan><tspan x="400" dy="1.2em" font-style="italic">source_data/*.csv</tspan></text></g></g></g></g><g data-cell-id="lam-g"><g><rect x="340" y="260" width="120" height="120" rx="18" ry="18" fill="#ede7f6" stroke="#7b61ff" stroke-width="1.5" pointer-events="all"/></g><g><g><text x="400" y="279" fill="#7B61FF" font-family="Helvetica" font-size="12px" text-anchor="middle"><tspan x="400" font-weight="bold">Ingest</tspan></text></g></g><g data-cell-id="lam"><g transform="translate(0.5,0.5)"><path d="M 376 290 L 424 290 L 424 338 L 376 338 Z" fill="#7b61ff" stroke="none" pointer-events="all"/><path d="M 391.79 331.83 L 383.28 331.83 L 392.7 312.15 L 396.96 320.93 Z M 393.31 310.26 C 393.2 310.03 392.95 309.88 392.69 309.88 L 392.69 309.88 C 392.43 309.88 392.18 310.03 392.07 310.27 L 381.57 332.22 C 381.47 332.43 381.48 332.68 381.61 332.88 C 381.73 333.08 381.95 333.2 382.19 333.2 L 392.23 333.2 C 392.49 333.2 392.74 333.05 392.85 332.81 L 398.35 321.22 C 398.44 321.03 398.43 320.81 398.34 320.63 Z M 417.16 331.83 L 408.7 331.83 L 395.13 303.42 C 395.01 303.18 394.77 303.03 394.51 303.03 L 388.97 303.03 L 388.98 296.17 L 399.83 296.17 L 413.33 324.58 C 413.45 324.82 413.69 324.97 413.95 324.97 L 417.16 324.97 Z M 417.84 323.6 L 414.39 323.6 L 400.88 295.19 C 400.77 294.95 400.53 294.8 400.26 294.8 L 388.29 294.8 C 387.91 294.8 387.6 295.11 387.6 295.49 L 387.6 303.71 C 387.6 303.9 387.67 304.07 387.8 304.2 C 387.93 304.33 388.1 304.4 388.28 304.4 L 394.07 304.4 L 407.64 332.81 C 407.76 333.05 408 333.2 408.26 333.2 L 417.84 333.2 C 418.22 333.2 418.53 332.89 418.53 332.51 L 418.53 324.29 C 418.53 323.91 418.22 323.6 417.84 323.6 Z" fill="#ffffff" stroke="none" pointer-events="all"/></g><g><g><text x="400" y="355" fill="#232F3E" font-family="Helvetica" font-size="10px" text-anchor="middle"><tspan x="400">AWS Lambda</tspan><tspan x="400" dy="1.2em" font-style="italic">aqi_s3_to_kinesis</tspan></text></g></g></g></g><g data-cell-id="kin-g"><g><rect x="340" y="420" width="120" height="120" rx="18" ry="18" fill="#fff2e8" stroke="#ff9900" stroke-width="1.5" pointer-events="all"/></g><g><g><text x="400" y="439" fill="#FF9900" font-family="Helvetica" font-size="12px" text-anchor="middle"><tspan x="400" font-weight="bold">Stream</tspan></text></g></g><g data-cell-id="kin"><g transform="translate(0.5,0.5)"><path d="M 376 450 L 424 450 L 424 498 L 376 498 Z" fill="#ff9900" stroke="none" pointer-events="all"/><path d="M 385.6 489.09 L 386.97 489.09 C 386.97 483.32 390.72 477.43 418.51 477.43 L 418.51 476.06 C 389.51 476.06 385.6 482.64 385.6 489.09 M 389.71 493.2 L 391.09 493.2 C 391.09 488.01 391.09 480.17 418.51 480.17 L 418.51 478.8 C 405.94 478.8 397.76 480.42 393.49 483.75 C 389.71 486.69 389.71 490.45 389.71 493.2 M 382.86 464.4 L 381.49 464.4 C 381.49 469.47 388.37 472.68 401.98 474 C 388.37 475.32 381.49 478.53 381.49 483.6 L 382.86 483.6 C 382.86 480.27 387.49 474.69 418.51 474.69 L 418.51 473.31 C 387.49 473.31 382.86 467.73 382.86 464.4 M 386.97 458.91 L 385.6 458.91 C 385.6 465.36 389.51 471.94 418.51 471.94 L 418.51 470.57 C 390.72 470.57 386.97 464.68 386.97 458.91 M 418.51 467.83 L 418.51 469.2 C 405.94 469.2 397.76 467.58 393.49 464.25 C 389.71 461.31 389.71 457.55 389.71 454.8 L 391.09 454.8 C 391.09 459.99 391.09 467.83 418.51 467.83" fill="#ffffff" stroke="none" pointer-events="all"/></g><g><g><text x="400" y="515" fill="#232F3E" font-family="Helvetica" font-size="10px" text-anchor="middle"><tspan x="400">Kinesis Data Streams</tspan><tspan x="400" dy="1.2em" font-style="italic">AQI_Stream</tspan></text></g></g></g></g><g data-cell-id="fh-g"><g><rect x="340" y="590" width="120" height="120" rx="18" ry="18" fill="#fff2e8" stroke="#dc4405" stroke-width="1.5" pointer-events="all"/></g><g><g><text x="400" y="609" fill="#DC4405" font-family="Helvetica" font-size="12px" text-anchor="middle"><tspan x="400" font-weight="bold">Delivery</tspan></text></g></g><g data-cell-id="fh"><g transform="translate(0.5,0.5)"><path d="M 376 620 L 424 620 L 424 668 L 376 668 Z" fill="#dc4405" stroke="none" pointer-events="all"/><path d="M 419.2 646.93 L 418.66 648.29 C 416.33 647.35 413.48 646.88 410.2 646.88 L 410.2 645.42 C 413.67 645.42 416.69 645.93 419.2 646.93 Z M 418.7 646.11 C 416.58 645.41 412.29 644.69 410.2 644.69 L 410.2 643.23 C 412.31 643.23 416.58 642.51 418.67 641.81 L 419.13 643.19 C 418.33 643.46 417.26 643.73 416.1 643.96 C 417.27 644.2 418.36 644.46 419.16 644.73 Z M 419.19 640.99 C 416.58 641.99 413.55 642.5 410.2 642.5 L 410.2 641.04 C 413.37 641.04 416.22 640.57 418.67 639.63 Z M 407.25 646.31 L 399.96 648.13 L 399.96 639.79 L 407.25 641.61 Z M 398.5 649.8 L 396.31 649.8 L 396.31 638.12 L 398.5 638.12 L 398.5 638.85 L 398.5 649.07 Z M 408.16 640.33 L 399.96 638.28 L 399.96 637.39 C 399.96 636.99 399.63 636.66 399.23 636.66 L 395.58 636.66 C 395.18 636.66 394.85 636.99 394.85 637.39 L 394.85 638.07 C 383.76 637.26 382.45 632.74 382.45 629.37 L 382.45 625.72 L 380.99 625.72 L 380.99 629.37 C 380.99 635.55 385.53 638.87 394.85 639.53 L 394.85 640.29 C 389.19 640.06 385.12 639.16 382.1 637.49 L 381.39 638.76 C 384.63 640.56 388.92 641.51 394.85 641.75 L 394.85 643.22 C 390.73 643.12 385.15 642.84 381.17 641.8 L 380.8 643.21 C 381.99 643.52 383.32 643.77 384.7 643.96 C 383.32 644.16 381.99 644.4 380.8 644.71 L 381.17 646.13 C 385.15 645.08 390.73 644.8 394.85 644.71 L 394.85 646.18 C 388.95 646.41 384.66 647.36 381.4 649.16 L 382.1 650.44 C 385.15 648.76 389.22 647.87 394.85 647.64 L 394.85 648.39 C 382.81 649.27 380.99 655.56 380.99 659.28 L 380.98 659.57 C 380.97 661.92 380.98 662.18 380.99 662.28 L 382.44 662.15 C 382.44 662.01 382.44 661.15 382.44 659.58 L 382.45 659.28 C 382.45 653.72 386.74 650.48 394.85 649.86 L 394.85 650.53 C 394.85 650.93 395.18 651.26 395.58 651.26 L 399.23 651.26 C 399.63 651.26 399.96 650.93 399.96 650.53 L 399.96 649.64 L 408.16 647.59 C 408.49 647.51 408.71 647.21 408.71 646.88 L 408.71 641.04 C 408.71 640.71 408.49 640.42 408.16 640.33 Z" fill="#ffffff" stroke="none" pointer-events="all"/></g><g><g><text x="400" y="685" fill="#232F3E" font-family="Helvetica" font-size="10px" text-anchor="middle"><tspan x="400">Amazon Firehose</tspan><tspan x="400" dy="1.2em" font-style="italic">AQI_Batch</tspan></text></g></g></g></g><g data-cell-id="s3raw-g"><g><rect x="340" y="770" width="120" height="120" rx="18" ry="18" fill="#e8f5e9" stroke="#3f8624" stroke-width="1.5" pointer-events="all"/></g><g><g><text x="400" y="789" fill="#3F8624" font-family="Helvetica" font-size="12px" text-anchor="middle"><tspan x="400" font-weight="bold">Raw Archive</tspan></text></g></g><g data-cell-id="s3raw"><g transform="translate(0.5,0.5)"><path d="M 376 800 L 424 800 L 424 848 L 376 848 Z" fill="#3f8624" stroke="none" pointer-events="all"/><path d="M 414.33 825.98 L 414.59 824.13 C 417.02 825.58 417.05 826.18 417.05 826.2 C 417.05 826.2 416.63 826.55 414.33 825.98 Z M 412.99 825.61 C 408.8 824.34 402.95 821.66 400.59 820.54 C 400.59 820.54 400.59 820.53 400.59 820.52 C 400.59 819.61 399.85 818.87 398.94 818.87 C 398.04 818.87 397.3 819.61 397.3 820.52 C 397.3 821.43 398.04 822.16 398.94 822.16 C 399.34 822.16 399.7 822.02 399.99 821.78 C 402.77 823.1 408.57 825.74 412.8 826.99 L 411.13 838.78 C 411.12 838.82 411.12 838.85 411.12 838.88 C 411.12 839.92 406.52 841.83 399.01 841.83 C 391.41 841.83 386.77 839.92 386.77 838.88 C 386.77 838.85 386.76 838.82 386.76 838.79 L 383.27 813.27 C 386.29 815.36 392.79 816.46 399.01 816.46 C 405.22 816.46 411.71 815.36 414.74 813.29 Z M 382.9 810.61 C 382.95 809.71 388.13 806.17 399.01 806.17 C 409.89 806.17 415.08 809.71 415.13 810.61 L 415.13 810.92 C 414.53 812.94 407.81 815.09 399.01 815.09 C 390.2 815.09 383.47 812.94 382.9 810.91 Z M 416.5 810.63 C 416.5 808.25 409.69 804.8 399.01 804.8 C 388.34 804.8 381.53 808.25 381.53 810.63 L 381.59 811.15 L 385.39 838.93 C 385.49 842.04 393.77 843.2 399.01 843.2 C 405.5 843.2 412.4 841.71 412.49 838.94 L 414.13 827.35 C 415.05 827.57 415.8 827.68 416.41 827.68 C 417.22 827.68 417.76 827.48 418.1 827.09 C 418.37 826.76 418.47 826.37 418.4 825.95 C 418.22 825 417.09 823.98 414.8 822.67 L 416.43 811.17 Z" fill="#ffffff" stroke="none" pointer-events="all"/></g><g><g><text x="400" y="865" fill="#232F3E" font-family="Helvetica" font-size="10px" text-anchor="middle"><tspan x="400">Amazon S3</tspan><tspan x="400" dy="1.2em" font-style="italic">rawingestion/</tspan></text></g></g></g></g><g data-cell-id="gl-g"><g><rect x="340" y="940" width="120" height="120" rx="18" ry="18" fill="#ede7f6" stroke="#8c4fff" stroke-width="1.5" pointer-events="all"/></g><g><g><text x="400" y="959" fill="#8C4FFF" font-family="Helvetica" font-size="12px" text-anchor="middle"><tspan x="400" font-weight="bold">Crawl</tspan></text></g></g><g data-cell-id="gl"><g transform="translate(0.5,0.5)"><path d="M 376 970 L 424 970 L 424 1018 L 376 1018 Z" fill="#8c4fff" stroke="none" pointer-events="all"/><path d="M 395.02 981.91 L 396.44 981.91 L 396.44 980.49 L 395.02 980.49 Z M 393.6 982.62 L 393.6 979.78 C 393.6 979.39 393.92 979.07 394.31 979.07 L 397.16 979.07 C 397.55 979.07 397.87 979.39 397.87 979.78 L 397.87 982.62 C 397.87 983.01 397.55 983.33 397.16 983.33 L 394.31 983.33 C 393.92 983.33 393.6 983.01 393.6 982.62 Z M 400.71 977.64 L 402.13 977.64 L 402.13 976.22 L 400.71 976.22 Z M 399.29 978.36 L 399.29 975.51 C 399.29 975.12 399.61 974.8 400 974.8 L 402.84 974.8 C 403.24 974.8 403.56 975.12 403.56 975.51 L 403.56 978.36 C 403.56 978.75 403.24 979.07 402.84 979.07 L 400 979.07 C 399.61 979.07 399.29 978.75 399.29 978.36 Z M 402.13 984.76 L 403.56 984.76 L 403.56 983.33 L 402.13 983.33 Z M 401.42 981.91 L 404.27 981.91 C 404.66 981.91 404.98 982.23 404.98 982.62 L 404.98 985.47 C 404.98 985.86 404.66 986.18 404.27 986.18 L 401.42 986.18 C 401.03 986.18 400.71 985.86 400.71 985.47 L 400.71 982.62 C 400.71 982.23 401.03 981.91 401.42 981.91 Z M 400 989.38 C 398.75 989.38 394.21 989.32 391.25 988.6 L 398.47 1000.02 C 398.54 1000.13 398.58 1000.27 398.58 1000.4 L 398.58 1002.02 C 399.58 1002.31 400.5 1002.31 401.42 1002.03 L 401.42 1000.4 C 401.42 1000.27 401.46 1000.13 401.53 1000.02 L 408.75 988.6 C 405.79 989.32 401.25 989.38 400 989.38 Z M 388.8 987.38 C 388.69 987.22 388.62 987.04 388.62 986.84 C 388.62 984.82 395.3 984.45 399.27 984.4 L 399.29 985.83 C 394.4 985.88 391.42 986.44 390.36 986.85 C 391.48 987.32 394.77 987.96 400 987.96 C 405.22 987.96 408.5 987.32 409.63 986.86 C 409.17 986.67 408.22 986.4 406.31 986.16 L 406.49 984.75 C 410.8 985.28 411.38 986.1 411.38 986.84 C 411.38 987.04 411.31 987.22 411.2 987.38 L 402.84 1000.61 L 402.84 1002.53 C 402.84 1002.82 402.67 1003.09 402.4 1003.19 C 401.62 1003.5 400.84 1003.66 400.05 1003.66 C 399.26 1003.66 398.45 1003.51 397.62 1003.2 C 397.34 1003.1 397.16 1002.83 397.16 1002.53 L 397.16 1000.61 Z M 404.92 1007.95 C 405.03 1008.22 404.97 1008.52 404.77 1008.72 L 400.5 1012.99 C 400.36 1013.13 400.18 1013.2 400 1013.2 C 399.82 1013.2 399.64 1013.13 399.5 1012.99 L 395.23 1008.72 C 395.03 1008.52 394.97 1008.22 395.08 1007.95 C 395.19 1007.68 395.45 1007.51 395.73 1007.51 L 397.87 1007.51 L 397.87 1005.38 L 399.29 1005.38 L 399.29 1008.22 C 399.29 1008.61 398.97 1008.93 398.58 1008.93 L 397.45 1008.93 L 400 1011.48 L 402.55 1008.93 L 401.42 1008.93 C 401.03 1008.93 400.71 1008.61 400.71 1008.22 L 400.71 1005.38 L 402.13 1005.38 L 402.13 1007.51 L 404.27 1007.51 C 404.55 1007.51 404.81 1007.68 404.92 1007.95 Z" fill="#ffffff" stroke="none" pointer-events="all"/></g><g><g><text x="400" y="1035" fill="#232F3E" font-family="Helvetica" font-size="10px" text-anchor="middle"><tspan x="400">AWS Glue</tspan><tspan x="400" dy="1.2em" font-style="italic">Raw_Crawler</tspan></text></g></g></g></g><g data-cell-id="cat-g"><g><rect x="340" y="1110" width="120" height="120" rx="18" ry="18" fill="#ede7f6" stroke="#8c4fff" stroke-width="1.5" pointer-events="all"/></g><g><g><text x="400" y="1129" fill="#8C4FFF" font-family="Helvetica" font-size="12px" text-anchor="middle"><tspan x="400" font-weight="bold">Catalog</tspan></text></g></g><g data-cell-id="cat"><g transform="translate(0.5,0.5)"><path d="M 376 1140 L 424 1140 L 424 1188 L 376 1188 Z" fill="#8c4fff" stroke="none" pointer-events="all"/><path d="M 395.02 1151.91 L 396.44 1151.91 L 396.44 1150.49 L 395.02 1150.49 Z M 393.6 1152.62 L 393.6 1149.78 C 393.6 1149.39 393.92 1149.07 394.31 1149.07 L 397.16 1149.07 C 397.55 1149.07 397.87 1149.39 397.87 1149.78 L 397.87 1152.62 C 397.87 1153.01 397.55 1153.33 397.16 1153.33 L 394.31 1153.33 C 393.92 1153.33 393.6 1153.01 393.6 1152.62 Z M 400.71 1147.64 L 402.13 1147.64 L 402.13 1146.22 L 400.71 1146.22 Z M 399.29 1148.36 L 399.29 1145.51 C 399.29 1145.12 399.61 1144.8 400 1144.8 L 402.84 1144.8 C 403.24 1144.8 403.56 1145.12 403.56 1145.51 L 403.56 1148.36 C 403.56 1148.75 403.24 1149.07 402.84 1149.07 L 400 1149.07 C 399.61 1149.07 399.29 1148.75 399.29 1148.36 Z M 402.13 1154.76 L 403.56 1154.76 L 403.56 1153.33 L 402.13 1153.33 Z M 401.42 1151.91 L 404.27 1151.91 C 404.66 1151.91 404.98 1152.23 404.98 1152.62 L 404.98 1155.47 C 404.98 1155.86 404.66 1156.18 404.27 1156.18 L 401.42 1156.18 C 401.03 1156.18 400.71 1155.86 400.71 1155.47 L 400.71 1152.62 C 400.71 1152.23 401.03 1151.91 401.42 1151.91 Z M 400 1159.38 C 398.75 1159.38 394.21 1159.32 391.25 1158.6 L 398.47 1170.02 C 398.54 1170.13 398.58 1170.27 398.58 1170.4 L 398.58 1172.02 C 399.58 1172.31 400.5 1172.31 401.42 1172.03 L 401.42 1170.4 C 401.42 1170.27 401.46 1170.13 401.53 1170.02 L 408.75 1158.6 C 405.79 1159.32 401.25 1159.38 400 1159.38 Z M 388.8 1157.38 C 388.69 1157.22 388.62 1157.04 388.62 1156.84 C 388.62 1154.82 395.3 1154.45 399.27 1154.4 L 399.29 1155.83 C 394.4 1155.88 391.42 1156.44 390.36 1156.85 C 391.48 1157.32 394.77 1157.96 400 1157.96 C 405.22 1157.96 408.5 1157.32 409.63 1156.86 C 409.17 1156.67 408.22 1156.4 406.31 1156.16 L 406.49 1154.75 C 410.8 1155.28 411.38 1156.1 411.38 1156.84 C 411.38 1157.04 411.31 1157.22 411.2 1157.38 L 402.84 1170.61 L 402.84 1172.53 C 402.84 1172.82 402.67 1173.09 402.4 1173.19 C 401.62 1173.5 400.84 1173.66 400.05 1173.66 C 399.26 1173.66 398.45 1173.51 397.62 1173.2 C 397.34 1173.1 397.16 1172.83 397.16 1172.53 L 397.16 1170.61 Z M 404.92 1177.95 C 405.03 1178.22 404.97 1178.52 404.77 1178.72 L 400.5 1182.99 C 400.36 1183.13 400.18 1183.2 400 1183.2 C 399.82 1183.2 399.64 1183.13 399.5 1182.99 L 395.23 1178.72 C 395.03 1178.52 394.97 1178.22 395.08 1177.95 C 395.19 1177.68 395.45 1177.51 395.73 1177.51 L 397.87 1177.51 L 397.87 1175.38 L 399.29 1175.38 L 399.29 1178.22 C 399.29 1178.61 398.97 1178.93 398.58 1178.93 L 397.45 1178.93 L 400 1181.48 L 402.55 1178.93 L 401.42 1178.93 C 401.03 1178.93 400.71 1178.61 400.71 1178.22 L 400.71 1175.38 L 402.13 1175.38 L 402.13 1177.51 L 404.27 1177.51 C 404.55 1177.51 404.81 1177.68 404.92 1177.95 Z" fill="#ffffff" stroke="none" pointer-events="all"/></g><g><g><text x="400" y="1205" fill="#232F3E" font-family="Helvetica" font-size="10px" text-anchor="middle"><tspan x="400">AWS Glue</tspan><tspan x="400" dy="1.2em" font-style="italic">Catalog: aqi_db</tspan></text></g></g></g></g><g data-cell-id="ath-g"><g><rect x="340" y="1280" width="120" height="120" rx="18" ry="18" fill="#ede7f6" stroke="#8c4fff" stroke-width="1.5" pointer-events="all"/></g><g><g><text x="400" y="1299" fill="#8C4FFF" font-family="Helvetica" font-size="12px" text-anchor="middle"><tspan x="400" font-weight="bold">Query</tspan></text></g></g><g data-cell-id="ath"><g transform="translate(0.5,0.5)"><path d="M 376 1310 L 424 1310 L 424 1358 L 376 1358 Z" fill="#8c4fff" stroke="none" pointer-events="all"/><path d="M 398.56 1325.36 C 401.49 1325.36 403.09 1326.02 403.38 1326.35 C 403.09 1326.67 401.49 1327.33 398.56 1327.33 C 395.64 1327.33 394.04 1326.67 393.75 1326.35 C 394.04 1326.02 395.64 1325.36 398.56 1325.36 Z M 398.23 1330.6 C 398.12 1330.55 398.05 1330.44 398.05 1330.31 C 398.05 1330.13 398.2 1329.98 398.38 1329.98 C 398.43 1329.98 398.48 1329.99 398.52 1330.02 Z M 402 1336.01 C 401.95 1336.05 401.84 1336.13 401.61 1336.22 C 401.4 1336.3 401.16 1336.37 400.89 1336.44 C 400.16 1336.61 399.27 1336.7 398.38 1336.7 C 396.42 1336.7 395.05 1336.28 394.76 1336.02 L 393.89 1327.92 C 395.22 1328.46 397.18 1328.64 398.56 1328.64 C 399.92 1328.64 401.84 1328.46 403.17 1327.94 L 402.65 1331.5 C 401.67 1331.14 400.45 1330.6 399.3 1330.04 C 399.18 1329.63 398.81 1329.33 398.38 1329.33 C 397.84 1329.33 397.41 1329.77 397.41 1330.31 C 397.41 1330.85 397.84 1331.29 398.38 1331.29 C 398.5 1331.29 398.62 1331.26 398.73 1331.22 C 400.35 1332.02 401.55 1332.53 402.46 1332.84 Z M 392.43 1326.42 L 393.48 1336.18 C 393.55 1337.99 398.18 1338.01 398.38 1338.01 C 399.37 1338.01 400.36 1337.91 401.18 1337.72 C 401.52 1337.64 401.82 1337.54 402.08 1337.44 C 402.85 1337.13 403.25 1336.71 403.27 1336.2 L 403.71 1333.2 C 404.01 1333.26 404.25 1333.29 404.44 1333.29 C 405.05 1333.29 405.21 1333.04 405.32 1332.87 C 405.44 1332.69 405.47 1332.47 405.42 1332.24 C 405.29 1331.73 404.57 1331.05 404.08 1330.65 L 404.69 1326.44 L 404.69 1326.44 C 404.69 1326.41 404.7 1326.38 404.7 1326.35 C 404.7 1324.53 400.84 1324.05 398.56 1324.05 C 396.28 1324.05 392.43 1324.53 392.43 1326.35 C 392.43 1326.37 392.44 1326.39 392.44 1326.42 Z M 398.27 1320.7 C 403.9 1320.7 408.48 1325.35 408.48 1331.06 C 408.48 1336.78 403.9 1341.43 398.27 1341.43 C 392.63 1341.43 388.05 1336.78 388.05 1331.06 C 388.05 1325.35 392.63 1320.7 398.27 1320.7 Z M 382.09 1334.87 L 382.09 1336.18 L 387.91 1336.18 L 387.91 1336.1 C 389.76 1340.02 393.7 1342.74 398.27 1342.74 C 404.61 1342.74 409.77 1337.5 409.77 1331.06 C 409.77 1324.62 404.61 1319.39 398.27 1319.39 C 393.33 1319.39 389.12 1322.56 387.49 1327 L 382.09 1327 L 382.09 1328.31 L 387.1 1328.31 C 386.9 1329.16 386.78 1330.03 386.77 1330.93 L 380.8 1330.93 L 380.8 1332.25 L 386.82 1332.25 C 386.91 1333.16 387.12 1334.03 387.4 1334.87 Z M 417.3 1350.62 C 416.52 1351.41 415.16 1351.42 414.38 1350.63 L 407.44 1343.58 C 408.56 1342.74 409.55 1341.74 410.41 1340.62 L 417.31 1347.66 C 417.69 1348.05 417.91 1348.58 417.91 1349.14 C 417.91 1349.7 417.69 1350.22 417.3 1350.62 Z M 418.22 1346.73 L 411.17 1339.54 C 412.73 1337.1 413.64 1334.19 413.64 1331.06 C 413.64 1322.45 406.74 1315.45 398.27 1315.45 C 392.17 1315.45 386.65 1319.11 384.19 1324.77 L 385.37 1325.3 C 387.62 1320.11 392.68 1316.76 398.27 1316.76 C 406.03 1316.76 412.35 1323.18 412.35 1331.06 C 412.35 1338.94 406.03 1345.36 398.27 1345.36 C 393.08 1345.36 388.32 1342.48 385.86 1337.84 L 384.72 1338.46 C 387.41 1343.52 392.6 1346.67 398.27 1346.67 C 401.23 1346.67 404 1345.81 406.35 1344.33 L 413.47 1351.55 C 414.1 1352.19 414.94 1352.55 415.83 1352.55 C 416.73 1352.55 417.58 1352.19 418.21 1351.55 C 418.85 1350.91 419.2 1350.05 419.2 1349.14 C 419.2 1348.23 418.85 1347.37 418.22 1346.73 Z" fill="#ffffff" stroke="none" pointer-events="all"/></g><g><g><text x="400" y="1375" fill="#232F3E" font-family="Helvetica" font-size="10px" text-anchor="middle"><tspan x="400">Amazon Athena</tspan><tspan x="400" dy="1.2em" font-style="italic">SQL on raw data</tspan></text></g></g></g></g><g data-cell-id="e1"><g><path d="M 400 227.3 L 400 260" fill="none" stroke="#dc4405" stroke-width="1.5" stroke-miterlimit="10" pointer-events="stroke"/><path d="M 400 221.68 L 403.75 229.18 L 400 227.3 L 396.25 229.18 Z" fill="#dc4405" stroke="#dc4405" stroke-width="1.5" stroke-miterlimit="10" pointer-events="all"/></g><g data-cell-id="e1l"><g><g><text x="434" y="244" fill="#000000" font-family="Helvetica" font-size="11px" text-anchor="middle"><tspan x="434">reads CSV</tspan></text></g></g></g></g><g data-cell-id="e2"><g><path d="M 400 380 L 400 412.7" fill="none" stroke="#dc4405" stroke-width="1.5" stroke-miterlimit="10" pointer-events="stroke"/><path d="M 400 418.32 L 396.25 410.82 L 400 412.7 L 403.75 410.82 Z" fill="#dc4405" stroke="#dc4405" stroke-width="1.5" stroke-miterlimit="10" pointer-events="all"/></g><g data-cell-id="e2l"><g><g><text x="434" y="404" fill="#000000" font-family="Helvetica" font-size="11px" text-anchor="middle"><tspan x="434">puts JSON</tspan></text></g></g></g></g><g data-cell-id="e3"><g><path d="M 400 540 L 400 582.7" fill="none" stroke="#dc4405" stroke-width="1.5" stroke-miterlimit="10" pointer-events="stroke"/><path d="M 400 588.32 L 396.25 580.82 L 400 582.7 L 403.75 580.82 Z" fill="#dc4405" stroke="#dc4405" stroke-width="1.5" stroke-miterlimit="10" pointer-events="all"/></g><g data-cell-id="e3l"><g><g><text x="424" y="569" fill="#000000" font-family="Helvetica" font-size="11px" text-anchor="middle"><tspan x="424">feeds</tspan></text></g></g></g></g><g data-cell-id="e4"><g><path d="M 400 710 L 400 762.7" fill="none" stroke="#dc4405" stroke-width="1.5" stroke-miterlimit="10" pointer-events="stroke"/><path d="M 400 768.32 L 396.25 760.82 L 400 762.7 L 403.75 760.82 Z" fill="#dc4405" stroke="#dc4405" stroke-width="1.5" stroke-miterlimit="10" pointer-events="all"/></g><g data-cell-id="e4l"><g><g><text x="428" y="744" fill="#000000" font-family="Helvetica" font-size="11px" text-anchor="middle"><tspan x="428">delivers</tspan></text></g></g></g></g><g data-cell-id="e5"><g><path d="M 400 897.3 L 400 940" fill="none" stroke="#dc4405" stroke-width="1.5" stroke-miterlimit="10" pointer-events="stroke"/><path d="M 400 891.68 L 403.75 899.18 L 400 897.3 L 396.25 899.18 Z" fill="#dc4405" stroke="#dc4405" stroke-width="1.5" stroke-miterlimit="10" pointer-events="all"/></g><g data-cell-id="e5l"><g><g><text x="424" y="919" fill="#000000" font-family="Helvetica" font-size="11px" text-anchor="middle"><tspan x="424">crawls</tspan></text></g></g></g></g><g data-cell-id="e6"><g><path d="M 400 1060 L 400 1102.7" fill="none" stroke="#dc4405" stroke-width="1.5" stroke-miterlimit="10" pointer-events="stroke"/><path d="M 400 1108.32 L 396.25 1100.82 L 400 1102.7 L 403.75 1100.82 Z" fill="#dc4405" stroke="#dc4405" stroke-width="1.5" stroke-miterlimit="10" pointer-events="all"/></g><g data-cell-id="e6l"><g><g><text x="434" y="1089" fill="#000000" font-family="Helvetica" font-size="11px" text-anchor="middle"><tspan x="434">registers in</tspan></text></g></g></g></g><g data-cell-id="e7"><g><path d="M 400 1237.3 L 400 1280" fill="none" stroke="#dc4405" stroke-width="1.5" stroke-miterlimit="10" pointer-events="stroke"/><path d="M 400 1231.68 L 403.75 1239.18 L 400 1237.3 L 396.25 1239.18 Z" fill="#dc4405" stroke="#dc4405" stroke-width="1.5" stroke-miterlimit="10" pointer-events="all"/></g><g data-cell-id="e7l"><g><g><text x="424" y="1259" fill="#000000" font-family="Helvetica" font-size="11px" text-anchor="middle"><tspan x="424">queries</tspan></text></g></g></g></g><g data-cell-id="fh-features"><g transform="translate(0.5,0.5)"><rect x="510" y="590" width="185" height="120" rx="18" ry="18" fill="none" stroke="#dc4405" stroke-width="0.8" stroke-dasharray="3.2 1.6" pointer-events="all"/></g><g><g><text x="520" y="611" fill="#232F3E" font-family="Helvetica" font-size="10px"><tspan x="520" font-weight="bold">Firehose Features</tspan><tspan x="520" dy="1.2em">✓ Zero code — fully managed</tspan><tspan x="520" dy="1.2em">✓ Auto retry on failures</tspan><tspan x="520" dy="1.2em">✓ JSON to Parquet conversion</tspan><tspan x="520" dy="1.2em">✓ Scales automatically</tspan><tspan x="520" dy="1.2em">✓ 60s buffer / 5MB flush</tspan><tspan x="520" dy="1.2em">✓ YYYY/MM/DD/HH partitioning</tspan></text></g></g></g><g data-cell-id="fh-latency"><g transform="translate(0.5,0.5)"><rect x="110" y="610" width="185" height="60" rx="9" ry="9" fill="none" stroke="#565f89" stroke-width="0.8" pointer-events="all"/></g><g><g><text x="120" y="631" fill="#232F3E" font-family="Helvetica" font-size="10px"><tspan x="120" font-weight="bold">Near-real-time latency</tspan><tspan x="120" dy="1.2em">60s-900s depending on buffer</tspan><tspan x="120" dy="1.2em">Not per-record like streaming</tspan></text></g></g></g><g data-cell-id="b1"><g><rect x="360" y="226" width="28" height="28" rx="4.2" ry="4.2" fill="#007cbd" stroke="#000000" stroke-width="2" pointer-events="all"/></g><g><g><text x="374" y="245" fill="#FFFFFF" font-family="Helvetica" font-size="16px" text-anchor="middle"><tspan x="374" font-weight="bold">1</tspan></text></g></g></g><g data-cell-id="b2"><g><rect x="360" y="387" width="28" height="28" rx="4.2" ry="4.2" fill="#007cbd" stroke="#000000" stroke-width="2" pointer-events="all"/></g><g><g><text x="374" y="406" fill="#FFFFFF" font-family="Helvetica" font-size="16px" text-anchor="middle"><tspan x="374" font-weight="bold">2</tspan></text></g></g></g><g data-cell-id="b3"><g><rect x="360" y="551" width="28" height="28" rx="4.2" ry="4.2" fill="#007cbd" stroke="#000000" stroke-width="2" pointer-events="all"/></g><g><g><text x="374" y="570" fill="#FFFFFF" font-family="Helvetica" font-size="16px" text-anchor="middle"><tspan x="374" font-weight="bold">3</tspan></text></g></g></g><g data-cell-id="b4"><g><rect x="360" y="725" width="28" height="28" rx="4.2" ry="4.2" fill="#007cbd" stroke="#000000" stroke-width="2" pointer-events="all"/></g><g><g><text x="374" y="744" fill="#FFFFFF" font-family="Helvetica" font-size="16px" text-anchor="middle"><tspan x="374" font-weight="bold">4</tspan></text></g></g></g><g data-cell-id="b5"><g><rect x="360" y="903" width="28" height="28" rx="4.2" ry="4.2" fill="#007cbd" stroke="#000000" stroke-width="2" pointer-events="all"/></g><g><g><text x="374" y="922" fill="#FFFFFF" font-family="Helvetica" font-size="16px" text-anchor="middle"><tspan x="374" font-weight="bold">5</tspan></text></g></g></g><g data-cell-id="b6"><g><rect x="360" y="1241" width="28" height="28" rx="4.2" ry="4.2" fill="#007cbd" stroke="#000000" stroke-width="2" pointer-events="all"/></g><g><g><text x="374" y="1260" fill="#FFFFFF" font-family="Helvetica" font-size="16px" text-anchor="middle"><tspan x="374" font-weight="bold">6</tspan></text></g></g></g><g data-cell-id="leg-bg"><g transform="translate(0.5,0.5)"><path d="M 770 90 L 1287 90 L 1287 478 L 770 478 L 770 90 Z" fill="#edf3ff" stroke="none" pointer-events="all"/><path d="M 775 95 L 775 473 L 775 473 L 1282 473 L 1282 95 L 775 95" fill="none" stroke="none" pointer-events="all"/><path d="M 770 90 L 1287 90 L 1287 478 L 770 478 L 770 90 Z" fill="none" stroke="#6c8ebf" stroke-miterlimit="10" pointer-events="all"/></g></g><g data-cell-id="leg-c"><g transform="translate(0.5,0.5)"/><g data-cell-id="l1g"><g transform="translate(0.5,0.5)"/><g data-cell-id="l1b"><g><rect x="788" y="107" width="36" height="34" rx="5.1" ry="5.1" fill="#007cbd" stroke="#000000" stroke-width="2" pointer-events="all"/></g><g><g><text x="806" y="130" fill="#FFFFFF" font-family="Helvetica" font-size="20px" text-anchor="middle"><tspan x="806" font-weight="bold">1</tspan></text></g></g></g><g data-cell-id="l1d"><g transform="translate(0.5,0.5)"><rect x="832" y="112" width="520" height="48" fill="none" stroke="none" pointer-events="all"/></g><g><g><text x="834" y="128" fill="#000000" font-family="Helvetica" font-size="13px"><tspan x="834">Lambda reads CSV from S3, converts rows to JSON</tspan></text></g></g></g></g><g data-cell-id="l2g"><g transform="translate(0.5,0.5)"/><g data-cell-id="l2b"><g><rect x="788" y="163" width="36" height="34" rx="5.1" ry="5.1" fill="#007cbd" stroke="#000000" stroke-width="2" pointer-events="all"/></g><g><g><text x="806" y="186" fill="#FFFFFF" font-family="Helvetica" font-size="20px" text-anchor="middle"><tspan x="806" font-weight="bold">2</tspan></text></g></g></g><g data-cell-id="l2d"><g transform="translate(0.5,0.5)"><rect x="832" y="168" width="520" height="48" fill="none" stroke="none" pointer-events="all"/></g><g><g><text x="834" y="184" fill="#000000" font-family="Helvetica" font-size="13px"><tspan x="834">Lambda pushes JSON records to Kinesis AQI_Stream</tspan></text></g></g></g></g><g data-cell-id="l3g"><g transform="translate(0.5,0.5)"/><g data-cell-id="l3b"><g><rect x="788" y="219" width="36" height="34" rx="5.1" ry="5.1" fill="#007cbd" stroke="#000000" stroke-width="2" pointer-events="all"/></g><g><g><text x="806" y="242" fill="#FFFFFF" font-family="Helvetica" font-size="20px" text-anchor="middle"><tspan x="806" font-weight="bold">3</tspan></text></g></g></g><g data-cell-id="l3d"><g transform="translate(0.5,0.5)"><rect x="831" y="224" width="520" height="60" fill="none" stroke="none" pointer-events="all"/></g><g><g><text x="833" y="240" fill="#000000" font-family="Helvetica" font-size="13px"><tspan x="833">Firehose buffers records (60s / 5MB), auto-partitions by YYYY/MM/DD/HH</tspan></text></g></g></g></g><g data-cell-id="l4g"><g transform="translate(0.5,0.5)"/><g data-cell-id="l4b"><g><rect x="788" y="287" width="36" height="34" rx="5.1" ry="5.1" fill="#007cbd" stroke="#000000" stroke-width="2" pointer-events="all"/></g><g><g><text x="806" y="310" fill="#FFFFFF" font-family="Helvetica" font-size="20px" text-anchor="middle"><tspan x="806" font-weight="bold">4</tspan></text></g></g></g><g data-cell-id="l4d"><g transform="translate(0.5,0.5)"><rect x="832" y="292" width="520" height="48" fill="none" stroke="none" pointer-events="all"/></g><g><g><text x="834" y="308" fill="#000000" font-family="Helvetica" font-size="13px"><tspan x="834">Raw JSON delivered to S3 rawingestion/ — identical to Kinesis records</tspan></text></g></g></g></g><g data-cell-id="l5g"><g transform="translate(0.5,0.5)"/><g data-cell-id="l5b"><g><rect x="788" y="347" width="36" height="34" rx="5.1" ry="5.1" fill="#007cbd" stroke="#000000" stroke-width="2" pointer-events="all"/></g><g><g><text x="806" y="370" fill="#FFFFFF" font-family="Helvetica" font-size="20px" text-anchor="middle"><tspan x="806" font-weight="bold">5</tspan></text></g></g></g><g data-cell-id="l5d"><g transform="translate(0.5,0.5)"><rect x="832" y="352" width="520" height="48" fill="none" stroke="none" pointer-events="all"/></g><g><g><text x="834" y="368" fill="#000000" font-family="Helvetica" font-size="13px"><tspan x="834">Glue Raw_Crawler discovers schema, registers in aqi_db catalog</tspan></text></g></g></g></g><g data-cell-id="l6g"><g transform="translate(0.5,0.5)"/><g data-cell-id="l6b"><g><rect x="788" y="407" width="36" height="34" rx="5.1" ry="5.1" fill="#007cbd" stroke="#000000" stroke-width="2" pointer-events="all"/></g><g><g><text x="806" y="430" fill="#FFFFFF" font-family="Helvetica" font-size="20px" text-anchor="middle"><tspan x="806" font-weight="bold">6</tspan></text></g></g></g><g data-cell-id="l6d"><g transform="translate(0.5,0.5)"><rect x="832" y="412" width="520" height="48" fill="none" stroke="none" pointer-events="all"/></g><g><g><text x="834" y="428" fill="#000000" font-family="Helvetica" font-size="13px"><tspan x="834">Athena queries raw data via Glue Catalog — SQL on S3</tspan></text></g></g></g></g></g></g></g></g></svg>