<?xml version="1.0" encoding="UTF-8"?>
<!DOCTYPE svg PUBLIC "-//W3C//DTD SVG 1.1//EN" "http://www.w3.org/Graphics/SVG/1.1/DTD/svg11.dtd">
<svg xmlns="http://www.w3.org/2000/svg" style="background-color: #ffffff;" xmlns:xlink="http://www.w3.org/1999/xlink" version="1.1" width="2411px" height="741px" viewBox="0 0 2411 741"><defs/><rect fill="#ffffff" width="100%" height="100%" x="0" y="0" style="fill: #ffffff;"/><g><g data-cell-id="0"><g data-cell-id="1"><g data-cell-id="title-group"><g transform="translate(0.5,0.5)"/><g data-cell-id="title-text"><g transform="translate(0.5,0.5)"><rect x="0" y="0" width="900" height="42" fill="none" stroke="none" pointer-events="all"/></g><g><g transform="scale(0.9999999999999999)"><text x="2" y="33" fill="#000000" font-family="Helvetica" font-size="30px"><tspan x="2" font-weight="bold">CoinGecko ETL Pipeline — Full-AWS (S3 to Glue/Athena)</tspan></text></g></g></g><g data-cell-id="subtitle-text"><g transform="translate(0.5,0.5)"><rect x="5" y="40" width="800" height="25" fill="none" stroke="none" pointer-events="all"/></g><g><g transform="scale(0.9999999999999999)"><text x="7" y="59" fill="#000000" font-family="Helvetica" font-size="16px"><tspan x="7">Alternative loading layer: Glue Data Catalog + Athena query S3 CSVs in place</tspan></text></g></g></g><g data-cell-id="title-separator"><g><path d="M 5 75 L 1695 75" fill="none" stroke="#ff9900" stroke-width="2" stroke-miterlimit="10" pointer-events="all"/></g></g></g><g data-cell-id="coingecko-group"><g transform="translate(0.5,0.5)"><rect x="10" y="340" width="120" height="120" rx="18" ry="18" fill="#f5f5f5" stroke="#999999" pointer-events="all"/></g><g><g transform="scale(0.9999999999999999)"><text x="70" y="359" fill="#333333" font-family="Helvetica" font-size="12px" text-anchor="middle"><tspan x="70" font-weight="bold">API</tspan></text></g></g><g data-cell-id="svc-coingecko"><g transform="translate(0.5,0.5)"><rect x="46" y="370" width="48" height="48" fill="none" stroke="none" pointer-events="all"/><path d="M 81.53 401.03 L 77.61 404.95 L 77.61 392.27 L 75.43 392.27 L 75.43 404.82 L 71.68 401.01 L 70.13 402.54 L 75.79 408.3 C 76 408.5 76.27 408.62 76.56 408.62 L 76.57 408.62 C 76.86 408.62 77.14 408.51 77.34 408.3 L 83.07 402.57 Z M 68.19 398.78 L 69.73 397.24 L 64 391.5 C 63.79 391.3 63.52 391.18 63.23 391.18 L 63.22 391.18 C 62.93 391.19 62.65 391.3 62.45 391.51 L 56.78 397.26 L 58.34 398.79 L 62.09 394.98 L 62.09 409.5 L 64.27 409.5 L 64.27 394.86 Z M 65.99 409.52 L 73.69 409.52 L 73.69 407.34 L 65.99 407.33 Z M 94 400.31 C 94 403.02 93.18 405.22 91.55 406.83 C 88.88 409.48 85.01 409.53 84.7 409.53 L 84.69 409.53 L 79.49 409.53 L 79.5 407.35 L 84.69 407.35 C 84.74 407.35 87.96 407.33 90.03 405.27 C 91.22 404.08 91.82 402.41 91.82 400.31 C 91.82 399.02 91.47 397.09 88.41 395.22 C 86.8 394.23 85.29 393.91 84.72 393.82 C 84.14 393.72 83.75 393.19 83.82 392.61 C 83.62 390.33 82.55 388.73 80.87 388.22 C 79.41 387.78 77.86 388.29 76.89 389.53 C 76.65 389.85 76.27 390 75.87 389.94 C 75.48 389.88 75.15 389.62 75.01 389.24 C 74.34 387.43 73.36 385.91 72.12 384.71 C 70.58 383.24 66.36 380.08 60.4 382.49 C 56.98 383.87 54.3 387.84 54.3 391.52 C 54.3 391.93 54.32 392.34 54.38 392.74 C 54.44 393.27 54.12 393.77 53.61 393.92 C 53.57 393.94 53.53 393.95 53.48 393.95 C 51.47 394.46 48.18 395.98 48.18 400.49 C 48.18 403.92 50.14 405.82 51.79 406.81 C 52.35 407.14 53 407.32 53.66 407.32 L 60.37 407.33 L 60.37 409.51 L 53.66 409.5 C 52.6 409.5 51.56 409.22 50.66 408.68 C 48.92 407.63 46 405.18 46 400.49 C 46 396.44 48.27 393.36 52.13 392.08 C 52.12 391.89 52.12 391.71 52.12 391.52 C 52.12 386.94 55.33 382.19 59.58 380.47 C 64.54 378.47 69.79 379.47 73.63 383.14 C 74.75 384.21 75.69 385.51 76.42 386.99 C 77.87 385.94 79.73 385.6 81.5 386.13 C 83.89 386.86 85.5 388.96 85.92 391.84 C 87.16 392.15 88.44 392.68 89.55 393.36 C 92.54 395.2 94 397.47 94 400.31 Z" fill="#8c4fff" stroke="none" pointer-events="all"/></g><g><g transform="scale(0.9999999999999999)"><text x="70" y="435" fill="#232F3E" font-family="Helvetica" font-size="10px" text-anchor="middle"><tspan x="70">CoinGecko API</tspan><tspan x="70" dy="1.2em" font-style="italic">crypto market data</tspan></text></g></g></g></g><g data-cell-id="eventbridge-group"><g transform="translate(0.5,0.5)"><rect x="240" y="120" width="120" height="120" rx="18" ry="18" fill="#fce4ec" stroke="#e7157b" stroke-width="1.5" pointer-events="all"/></g><g><g transform="scale(0.9999999999999999)"><text x="300" y="139" fill="#E7157B" font-family="Helvetica" font-size="12px" text-anchor="middle"><tspan x="300" font-weight="bold">Scheduler</tspan></text></g></g><g data-cell-id="svc-eventbridge"><g transform="translate(0.5,0.5)"><path d="M 276 150 L 324 150 L 324 198 L 276 198 Z" fill="#e7157b" stroke="none" pointer-events="all"/><path d="M 309.36 191.83 C 307.89 191.83 306.7 190.63 306.7 189.15 C 306.7 187.67 307.89 186.47 309.36 186.47 C 310.83 186.47 312.03 187.67 312.03 189.15 C 312.03 190.63 310.83 191.83 309.36 191.83 Z M 303.52 180.17 L 296.43 180.17 L 292.89 174 L 296.43 167.83 L 303.52 167.83 L 307.06 174 Z M 291.51 161.53 C 290.04 161.53 288.85 160.33 288.85 158.85 C 288.85 157.37 290.04 156.17 291.51 156.17 C 292.98 156.17 294.18 157.37 294.18 158.85 C 294.18 160.33 292.98 161.53 291.51 161.53 Z M 309.36 185.1 C 308.86 185.1 308.38 185.19 307.93 185.37 L 305.03 180.45 L 304.88 180.54 L 308.44 174.34 C 308.56 174.13 308.56 173.87 308.44 173.66 L 304.5 166.8 C 304.38 166.59 304.16 166.46 303.91 166.46 L 296.75 166.46 L 296.78 166.44 L 294.12 161.93 C 294.99 161.19 295.54 160.09 295.54 158.85 C 295.54 156.62 293.73 154.8 291.51 154.8 C 289.29 154.8 287.48 156.62 287.48 158.85 C 287.48 161.09 289.29 162.9 291.51 162.9 C 292.02 162.9 292.5 162.81 292.95 162.63 L 295.43 166.84 L 291.51 173.66 C 291.39 173.87 291.39 174.13 291.51 174.34 L 295.45 181.2 C 295.57 181.41 295.8 181.54 296.04 181.54 L 303.91 181.54 C 303.97 181.54 304.02 181.53 304.08 181.52 L 306.76 186.07 C 305.89 186.81 305.34 187.91 305.34 189.15 C 305.34 191.38 307.14 193.2 309.36 193.2 C 311.59 193.2 313.39 191.38 313.39 189.15 C 313.39 186.91 311.59 185.1 309.36 185.1 Z M 313.43 168.59 C 311.96 168.59 310.76 167.38 310.76 165.91 C 310.76 164.43 311.96 163.22 313.43 163.22 C 314.9 163.22 316.09 164.43 316.09 165.91 C 316.09 167.38 314.9 168.59 313.43 168.59 Z M 318.42 173.66 L 315.83 169.15 C 316.82 168.41 317.46 167.23 317.46 165.91 C 317.46 163.67 315.65 161.85 313.43 161.85 C 312.86 161.85 312.33 161.97 311.84 162.19 L 309.73 158.51 C 309.6 158.3 309.38 158.17 309.14 158.17 L 300.68 158.17 L 300.68 159.54 L 308.74 159.54 L 310.69 162.94 C 309.9 163.68 309.4 164.73 309.4 165.91 C 309.4 168.14 311.21 169.96 313.43 169.96 C 313.84 169.96 314.24 169.89 314.62 169.78 L 317.05 174 L 313.64 179.93 L 314.82 180.62 L 318.42 174.34 C 318.54 174.13 318.54 173.87 318.42 173.66 Z M 287.13 184.46 C 285.66 184.46 284.46 183.25 284.46 181.77 C 284.46 180.3 285.66 179.09 287.13 179.09 C 288.6 179.09 289.79 180.3 289.79 181.77 C 289.79 183.25 288.6 184.46 287.13 184.46 Z M 289.36 185.15 C 290.44 184.42 291.16 183.18 291.16 181.77 C 291.16 179.54 289.35 177.72 287.13 177.72 C 286.48 177.72 285.88 177.88 285.34 178.15 L 282.96 174 L 286.9 167.12 L 285.72 166.44 L 281.58 173.66 C 281.46 173.87 281.46 174.13 281.58 174.34 L 284.23 178.96 C 283.53 179.69 283.1 180.68 283.1 181.77 C 283.1 184.01 284.91 185.83 287.13 185.83 C 287.46 185.83 287.79 185.78 288.1 185.7 L 290.27 189.49 C 290.4 189.7 290.62 189.83 290.86 189.83 L 299.32 189.83 L 299.32 188.46 L 291.26 188.46 Z" fill="#ffffff" stroke="none" pointer-events="all"/></g><g><g transform="scale(0.9999999999999999)"><text x="300" y="215" fill="#232F3E" font-family="Helvetica" font-size="10px" text-anchor="middle"><tspan x="300">Amazon EventBridge</tspan><tspan x="300" dy="1.2em" font-style="italic">every 5 minutes</tspan></text></g></g></g></g><g data-cell-id="lambda-extract-group"><g transform="translate(0.5,0.5)"><rect x="240" y="340" width="120" height="120" rx="18" ry="18" fill="#fff2e8" stroke="#ed7100" stroke-width="1.5" pointer-events="all"/></g><g><g transform="scale(0.9999999999999999)"><text x="300" y="359" fill="#ED7100" font-family="Helvetica" font-size="12px" text-anchor="middle"><tspan x="300" font-weight="bold">Extract</tspan></text></g></g><g data-cell-id="svc-lambda-extract"><g transform="translate(0.5,0.5)"><path d="M 276 370 L 324 370 L 324 418 L 276 418 Z" fill="#ed7100" stroke="none" pointer-events="all"/><path d="M 291.79 411.83 L 283.28 411.83 L 292.7 392.15 L 296.96 400.93 Z M 293.31 390.26 C 293.2 390.03 292.95 389.88 292.69 389.88 L 292.69 389.88 C 292.43 389.88 292.18 390.03 292.07 390.27 L 281.57 412.22 C 281.47 412.43 281.48 412.68 281.61 412.88 C 281.73 413.08 281.95 413.2 282.19 413.2 L 292.23 413.2 C 292.49 413.2 292.74 413.05 292.85 412.81 L 298.35 401.22 C 298.44 401.03 298.43 400.81 298.34 400.63 Z M 317.16 411.83 L 308.7 411.83 L 295.13 383.42 C 295.01 383.18 294.77 383.03 294.51 383.03 L 288.97 383.03 L 288.98 376.17 L 299.83 376.17 L 313.33 404.58 C 313.45 404.82 313.69 404.97 313.95 404.97 L 317.16 404.97 Z M 317.84 403.6 L 314.39 403.6 L 300.88 375.19 C 300.77 374.95 300.53 374.8 300.26 374.8 L 288.29 374.8 C 287.91 374.8 287.6 375.11 287.6 375.49 L 287.6 383.71 C 287.6 383.9 287.67 384.07 287.8 384.2 C 287.93 384.33 288.1 384.4 288.28 384.4 L 294.07 384.4 L 307.64 412.81 C 307.76 413.05 308 413.2 308.26 413.2 L 317.84 413.2 C 318.22 413.2 318.53 412.89 318.53 412.51 L 318.53 404.29 C 318.53 403.91 318.22 403.6 317.84 403.6 Z" fill="#ffffff" stroke="none" pointer-events="all"/></g><g><g transform="scale(0.9999999999999999)"><text x="300" y="435" fill="#232F3E" font-family="Helvetica" font-size="10px" text-anchor="middle"><tspan x="300">AWS Lambda</tspan><tspan x="300" dy="1.2em" font-style="italic">data extraction</tspan></text></g></g></g></g><g data-cell-id="s3-raw-group"><g transform="translate(0.5,0.5)"><rect x="440" y="340" width="120" height="120" rx="18" ry="18" fill="#e8f5e9" stroke="#3f8624" stroke-width="1.5" pointer-events="all"/></g><g><g transform="scale(0.9999999999999999)"><text x="500" y="359" fill="#3F8624" font-family="Helvetica" font-size="12px" text-anchor="middle"><tspan x="500" font-weight="bold">Raw Storage</tspan></text></g></g><g data-cell-id="svc-s3-raw"><g transform="translate(0.5,0.5)"><path d="M 476 370 L 524 370 L 524 418 L 476 418 Z" fill="#3f8624" stroke="none" pointer-events="all"/><path d="M 514.33 395.98 L 514.59 394.13 C 517.02 395.58 517.05 396.18 517.05 396.2 C 517.05 396.2 516.63 396.55 514.33 395.98 Z M 512.99 395.61 C 508.8 394.34 502.95 391.66 500.59 390.54 C 500.59 390.54 500.59 390.53 500.59 390.52 C 500.59 389.61 499.85 388.87 498.94 388.87 C 498.04 388.87 497.3 389.61 497.3 390.52 C 497.3 391.43 498.04 392.16 498.94 392.16 C 499.34 392.16 499.7 392.02 499.99 391.78 C 502.77 393.1 508.57 395.74 512.8 396.99 L 511.13 408.78 C 511.12 408.82 511.12 408.85 511.12 408.88 C 511.12 409.92 506.52 411.83 499.01 411.83 C 491.41 411.83 486.77 409.92 486.77 408.88 C 486.77 408.85 486.76 408.82 486.76 408.79 L 483.27 383.27 C 486.29 385.36 492.79 386.46 499.01 386.46 C 505.22 386.46 511.71 385.36 514.74 383.29 Z M 482.9 380.61 C 482.95 379.71 488.13 376.17 499.01 376.17 C 509.89 376.17 515.08 379.71 515.13 380.61 L 515.13 380.92 C 514.53 382.94 507.81 385.09 499.01 385.09 C 490.2 385.09 483.47 382.94 482.9 380.91 Z M 516.5 380.63 C 516.5 378.25 509.69 374.8 499.01 374.8 C 488.34 374.8 481.53 378.25 481.53 380.63 L 481.59 381.15 L 485.39 408.93 C 485.49 412.04 493.77 413.2 499.01 413.2 C 505.5 413.2 512.4 411.71 512.49 408.94 L 514.13 397.35 C 515.05 397.57 515.8 397.68 516.41 397.68 C 517.22 397.68 517.76 397.48 518.1 397.09 C 518.37 396.76 518.47 396.37 518.4 395.95 C 518.22 395 517.09 393.98 514.8 392.67 L 516.43 381.17 Z" fill="#ffffff" stroke="none" pointer-events="all"/></g><g><g transform="scale(0.9999999999999999)"><text x="500" y="435" fill="#232F3E" font-family="Helvetica" font-size="10px" text-anchor="middle"><tspan x="500">Amazon S3</tspan><tspan x="500" dy="1.2em" font-style="italic">raw_data/</tspan></text></g></g></g></g><g data-cell-id="lambda-transform-group"><g transform="translate(0.5,0.5)"><rect x="640" y="340" width="120" height="120" rx="18" ry="18" fill="#fff2e8" stroke="#ed7100" stroke-width="1.5" pointer-events="all"/></g><g><g transform="scale(0.9999999999999999)"><text x="700" y="359" fill="#ED7100" font-family="Helvetica" font-size="12px" text-anchor="middle"><tspan x="700" font-weight="bold">Transform</tspan></text></g></g><g data-cell-id="svc-lambda-transform"><g transform="translate(0.5,0.5)"><path d="M 676 370 L 724 370 L 724 418 L 676 418 Z" fill="#ed7100" stroke="none" pointer-events="all"/><path d="M 691.79 411.83 L 683.28 411.83 L 692.7 392.15 L 696.96 400.93 Z M 693.31 390.26 C 693.2 390.03 692.95 389.88 692.69 389.88 L 692.69 389.88 C 692.43 389.88 692.18 390.03 692.07 390.27 L 681.57 412.22 C 681.47 412.43 681.48 412.68 681.61 412.88 C 681.73 413.08 681.95 413.2 682.19 413.2 L 692.23 413.2 C 692.49 413.2 692.74 413.05 692.85 412.81 L 698.35 401.22 C 698.44 401.03 698.43 400.81 698.34 400.63 Z M 717.16 411.83 L 708.7 411.83 L 695.13 383.42 C 695.01 383.18 694.77 383.03 694.51 383.03 L 688.97 383.03 L 688.98 376.17 L 699.83 376.17 L 713.33 404.58 C 713.45 404.82 713.69 404.97 713.95 404.97 L 717.16 404.97 Z M 717.84 403.6 L 714.39 403.6 L 700.88 375.19 C 700.77 374.95 700.53 374.8 700.26 374.8 L 688.29 374.8 C 687.91 374.8 687.6 375.11 687.6 375.49 L 687.6 383.71 C 687.6 383.9 687.67 384.07 687.8 384.2 C 687.93 384.33 688.1 384.4 688.28 384.4 L 694.07 384.4 L 707.64 412.81 C 707.76 413.05 708 413.2 708.26 413.2 L 717.84 413.2 C 718.22 413.2 718.53 412.89 718.53 412.51 L 718.53 404.29 C 718.53 403.91 718.22 403.6 717.84 403.6 Z" fill="#ffffff" stroke="none" pointer-events="all"/></g><g><g transform="scale(0.9999999999999999)"><text x="700" y="435" fill="#232F3E" font-family="Helvetica" font-size="10px" text-anchor="middle"><tspan x="700">AWS Lambda</tspan><tspan x="700" dy="1.2em" font-style="italic">data transform</tspan></text></g></g></g></g><g data-cell-id="s3-transformed-group"><g transform="translate(0.5,0.5)"><rect x="840" y="340" width="120" height="120" rx="18" ry="18" fill="#e8f5e9" stroke="#3f8624" stroke-width="1.5" pointer-events="all"/></g><g><g transform="scale(0.9999999999999999)"><text x="900" y="359" fill="#3F8624" font-family="Helvetica" font-size="12px" text-anchor="middle"><tspan x="900" font-weight="bold">CSV Storage</tspan></text></g></g><g data-cell-id="svc-s3-transformed"><g transform="translate(0.5,0.5)"><path d="M 876 370 L 924 370 L 924 418 L 876 418 Z" fill="#3f8624" stroke="none" pointer-events="all"/><path d="M 914.33 395.98 L 914.59 394.13 C 917.02 395.58 917.05 396.18 917.05 396.2 C 917.05 396.2 916.63 396.55 914.33 395.98 Z M 912.99 395.61 C 908.8 394.34 902.95 391.66 900.59 390.54 C 900.59 390.54 900.59 390.53 900.59 390.52 C 900.59 389.61 899.85 388.87 898.94 388.87 C 898.04 388.87 897.3 389.61 897.3 390.52 C 897.3 391.43 898.04 392.16 898.94 392.16 C 899.34 392.16 899.7 392.02 899.99 391.78 C 902.77 393.1 908.57 395.74 912.8 396.99 L 911.13 408.78 C 911.12 408.82 911.12 408.85 911.12 408.88 C 911.12 409.92 906.52 411.83 899.01 411.83 C 891.41 411.83 886.77 409.92 886.77 408.88 C 886.77 408.85 886.76 408.82 886.76 408.79 L 883.27 383.27 C 886.29 385.36 892.79 386.46 899.01 386.46 C 905.22 386.46 911.71 385.36 914.74 383.29 Z M 882.9 380.61 C 882.95 379.71 888.13 376.17 899.01 376.17 C 909.89 376.17 915.08 379.71 915.13 380.61 L 915.13 380.92 C 914.53 382.94 907.81 385.09 899.01 385.09 C 890.2 385.09 883.47 382.94 882.9 380.91 Z M 916.5 380.63 C 916.5 378.25 909.69 374.8 899.01 374.8 C 888.34 374.8 881.53 378.25 881.53 380.63 L 881.59 381.15 L 885.39 408.93 C 885.49 412.04 893.77 413.2 899.01 413.2 C 905.5 413.2 912.4 411.71 912.49 408.94 L 914.13 397.35 C 915.05 397.57 915.8 397.68 916.41 397.68 C 917.22 397.68 917.76 397.48 918.1 397.09 C 918.37 396.76 918.47 396.37 918.4 395.95 C 918.22 395 917.09 393.98 914.8 392.67 L 916.43 381.17 Z" fill="#ffffff" stroke="none" pointer-events="all"/></g><g><g transform="scale(0.9999999999999999)"><text x="900" y="435" fill="#232F3E" font-family="Helvetica" font-size="10px" text-anchor="middle"><tspan x="900">Amazon S3</tspan><tspan x="900" dy="1.2em" font-style="italic">transformed_data/</tspan></text></g></g></g></g><g data-cell-id="approach1-label"><g transform="translate(0.5,0.5)"><rect x="1015" y="190" width="260" height="22" rx="3.3" ry="3.3" fill="#fff2e8" stroke="#ed7100" stroke-width="0.8" pointer-events="all"/></g><g><g transform="scale(0.9999999999999999)"><text x="1145" y="204" fill="#ED7100" font-family="Helvetica" font-size="10px" text-anchor="middle"><tspan x="1145" font-weight="bold">APPROACH 1 — Glue Crawler (auto-detect)</tspan></text></g></g></g><g data-cell-id="glue-crawler-group"><g transform="translate(0.5,0.5)"><rect x="1080" y="220" width="120" height="120" rx="18" ry="18" fill="#ede7f6" stroke="#8c4fff" stroke-width="1.5" pointer-events="all"/></g><g><g transform="scale(0.9999999999999999)"><text x="1140" y="239" fill="#8C4FFF" font-family="Helvetica" font-size="12px" text-anchor="middle"><tspan x="1140" font-weight="bold">Crawl</tspan></text></g></g><g data-cell-id="svc-glue-crawler"><g transform="translate(0.5,0.5)"><path d="M 1116 250 L 1164 250 L 1164 298 L 1116 298 Z" fill="#8c4fff" stroke="none" pointer-events="all"/><path d="M 1135.02 261.91 L 1136.44 261.91 L 1136.44 260.49 L 1135.02 260.49 Z M 1133.6 262.62 L 1133.6 259.78 C 1133.6 259.39 1133.92 259.07 1134.31 259.07 L 1137.16 259.07 C 1137.55 259.07 1137.87 259.39 1137.87 259.78 L 1137.87 262.62 C 1137.87 263.01 1137.55 263.33 1137.16 263.33 L 1134.31 263.33 C 1133.92 263.33 1133.6 263.01 1133.6 262.62 Z M 1140.71 257.64 L 1142.13 257.64 L 1142.13 256.22 L 1140.71 256.22 Z M 1139.29 258.36 L 1139.29 255.51 C 1139.29 255.12 1139.61 254.8 1140 254.8 L 1142.84 254.8 C 1143.24 254.8 1143.56 255.12 1143.56 255.51 L 1143.56 258.36 C 1143.56 258.75 1143.24 259.07 1142.84 259.07 L 1140 259.07 C 1139.61 259.07 1139.29 258.75 1139.29 258.36 Z M 1142.13 264.76 L 1143.56 264.76 L 1143.56 263.33 L 1142.13 263.33 Z M 1141.42 261.91 L 1144.27 261.91 C 1144.66 261.91 1144.98 262.23 1144.98 262.62 L 1144.98 265.47 C 1144.98 265.86 1144.66 266.18 1144.27 266.18 L 1141.42 266.18 C 1141.03 266.18 1140.71 265.86 1140.71 265.47 L 1140.71 262.62 C 1140.71 262.23 1141.03 261.91 1141.42 261.91 Z M 1140 269.38 C 1138.75 269.38 1134.21 269.32 1131.25 268.6 L 1138.47 280.02 C 1138.54 280.13 1138.58 280.27 1138.58 280.4 L 1138.58 282.02 C 1139.58 282.31 1140.5 282.31 1141.42 282.03 L 1141.42 280.4 C 1141.42 280.27 1141.46 280.13 1141.53 280.02 L 1148.75 268.6 C 1145.79 269.32 1141.25 269.38 1140 269.38 Z M 1128.8 267.38 C 1128.69 267.22 1128.62 267.04 1128.62 266.84 C 1128.62 264.82 1135.3 264.45 1139.27 264.4 L 1139.29 265.83 C 1134.4 265.88 1131.42 266.44 1130.36 266.85 C 1131.48 267.32 1134.77 267.96 1140 267.96 C 1145.22 267.96 1148.5 267.32 1149.63 266.86 C 1149.17 266.67 1148.22 266.4 1146.31 266.16 L 1146.49 264.75 C 1150.8 265.28 1151.38 266.1 1151.38 266.84 C 1151.38 267.04 1151.31 267.22 1151.2 267.38 L 1142.84 280.61 L 1142.84 282.53 C 1142.84 282.82 1142.67 283.09 1142.4 283.19 C 1141.62 283.5 1140.84 283.66 1140.05 283.66 C 1139.26 283.66 1138.45 283.51 1137.62 283.2 C 1137.34 283.1 1137.16 282.83 1137.16 282.53 L 1137.16 280.61 Z M 1144.92 287.95 C 1145.03 288.22 1144.97 288.52 1144.77 288.72 L 1140.5 292.99 C 1140.36 293.13 1140.18 293.2 1140 293.2 C 1139.82 293.2 1139.64 293.13 1139.5 292.99 L 1135.23 288.72 C 1135.03 288.52 1134.97 288.22 1135.08 287.95 C 1135.19 287.68 1135.45 287.51 1135.73 287.51 L 1137.87 287.51 L 1137.87 285.38 L 1139.29 285.38 L 1139.29 288.22 C 1139.29 288.61 1138.97 288.93 1138.58 288.93 L 1137.45 288.93 L 1140 291.48 L 1142.55 288.93 L 1141.42 288.93 C 1141.03 288.93 1140.71 288.61 1140.71 288.22 L 1140.71 285.38 L 1142.13 285.38 L 1142.13 287.51 L 1144.27 287.51 C 1144.55 287.51 1144.81 287.68 1144.92 287.95 Z" fill="#ffffff" stroke="none" pointer-events="all"/></g><g><g transform="scale(0.9999999999999999)"><text x="1140" y="315" fill="#232F3E" font-family="Helvetica" font-size="10px" text-anchor="middle"><tspan x="1140">AWS Glue</tspan><tspan x="1140" dy="1.2em" font-style="italic">Crawler</tspan></text></g></g></g></g><g data-cell-id="approach2-label"><g transform="translate(0.5,0.5)"><rect x="997" y="468" width="270" height="22" rx="3.3" ry="3.3" fill="#ede7f6" stroke="#8c4fff" stroke-width="0.8" pointer-events="all"/></g><g><g transform="scale(0.9999999999999999)"><text x="1132" y="482" fill="#8C4FFF" font-family="Helvetica" font-size="10px" text-anchor="middle"><tspan x="1132" font-weight="bold">APPROACH 2 — Athena DDL (Recommended)</tspan></text></g></g></g><g data-cell-id="athena-ddl-group"><g transform="translate(0.5,0.5)"><rect x="1080" y="495" width="120" height="120" rx="18" ry="18" fill="#ede7f6" stroke="#8c4fff" stroke-width="1.5" pointer-events="all"/></g><g><g transform="scale(0.9999999999999999)"><text x="1140" y="514" fill="#8C4FFF" font-family="Helvetica" font-size="12px" text-anchor="middle"><tspan x="1140" font-weight="bold">DDL</tspan></text></g></g><g data-cell-id="svc-athena-ddl"><g transform="translate(0.5,0.5)"><path d="M 1116 525 L 1164 525 L 1164 573 L 1116 573 Z" fill="#8c4fff" stroke="none" pointer-events="all"/><path d="M 1138.56 540.36 C 1141.49 540.36 1143.09 541.02 1143.38 541.35 C 1143.09 541.67 1141.49 542.33 1138.56 542.33 C 1135.64 542.33 1134.04 541.67 1133.75 541.35 C 1134.04 541.02 1135.64 540.36 1138.56 540.36 Z M 1138.23 545.6 C 1138.12 545.55 1138.05 545.44 1138.05 545.31 C 1138.05 545.13 1138.2 544.98 1138.38 544.98 C 1138.43 544.98 1138.48 544.99 1138.52 545.02 Z M 1142 551.01 C 1141.95 551.05 1141.84 551.13 1141.61 551.22 C 1141.4 551.3 1141.16 551.37 1140.89 551.44 C 1140.16 551.61 1139.27 551.7 1138.38 551.7 C 1136.42 551.7 1135.05 551.28 1134.76 551.02 L 1133.89 542.92 C 1135.22 543.46 1137.18 543.64 1138.56 543.64 C 1139.92 543.64 1141.84 543.46 1143.17 542.94 L 1142.65 546.5 C 1141.67 546.14 1140.45 545.6 1139.3 545.04 C 1139.18 544.63 1138.81 544.33 1138.38 544.33 C 1137.84 544.33 1137.41 544.77 1137.41 545.31 C 1137.41 545.85 1137.84 546.29 1138.38 546.29 C 1138.5 546.29 1138.62 546.26 1138.73 546.22 C 1140.35 547.02 1141.55 547.53 1142.46 547.84 Z M 1132.43 541.42 L 1133.48 551.18 C 1133.55 552.99 1138.18 553.01 1138.38 553.01 C 1139.37 553.01 1140.36 552.91 1141.18 552.72 C 1141.52 552.64 1141.82 552.54 1142.08 552.44 C 1142.85 552.13 1143.25 551.71 1143.27 551.2 L 1143.71 548.2 C 1144.01 548.26 1144.25 548.29 1144.44 548.29 C 1145.05 548.29 1145.21 548.04 1145.32 547.87 C 1145.44 547.69 1145.47 547.47 1145.42 547.24 C 1145.29 546.73 1144.57 546.05 1144.08 545.65 L 1144.69 541.44 L 1144.69 541.44 C 1144.69 541.41 1144.7 541.38 1144.7 541.35 C 1144.7 539.53 1140.84 539.05 1138.56 539.05 C 1136.28 539.05 1132.43 539.53 1132.43 541.35 C 1132.43 541.37 1132.44 541.39 1132.44 541.42 Z M 1138.27 535.7 C 1143.9 535.7 1148.48 540.35 1148.48 546.06 C 1148.48 551.78 1143.9 556.43 1138.27 556.43 C 1132.63 556.43 1128.05 551.78 1128.05 546.06 C 1128.05 540.35 1132.63 535.7 1138.27 535.7 Z M 1122.09 549.87 L 1122.09 551.18 L 1127.91 551.18 L 1127.91 551.1 C 1129.76 555.02 1133.7 557.74 1138.27 557.74 C 1144.61 557.74 1149.77 552.5 1149.77 546.06 C 1149.77 539.62 1144.61 534.39 1138.27 534.39 C 1133.33 534.39 1129.12 537.56 1127.49 542 L 1122.09 542 L 1122.09 543.31 L 1127.1 543.31 C 1126.9 544.16 1126.78 545.03 1126.77 545.93 L 1120.8 545.93 L 1120.8 547.25 L 1126.82 547.25 C 1126.91 548.16 1127.12 549.03 1127.4 549.87 Z M 1157.3 565.62 C 1156.52 566.41 1155.16 566.42 1154.38 565.63 L 1147.44 558.58 C 1148.56 557.74 1149.55 556.74 1150.41 555.62 L 1157.31 562.66 C 1157.69 563.05 1157.91 563.58 1157.91 564.14 C 1157.91 564.7 1157.69 565.22 1157.3 565.62 Z M 1158.22 561.73 L 1151.17 554.54 C 1152.73 552.1 1153.64 549.19 1153.64 546.06 C 1153.64 537.45 1146.74 530.45 1138.27 530.45 C 1132.17 530.45 1126.65 534.11 1124.19 539.77 L 1125.37 540.3 C 1127.62 535.11 1132.68 531.76 1138.27 531.76 C 1146.03 531.76 1152.35 538.18 1152.35 546.06 C 1152.35 553.94 1146.03 560.36 1138.27 560.36 C 1133.08 560.36 1128.32 557.48 1125.86 552.84 L 1124.72 553.46 C 1127.41 558.52 1132.6 561.67 1138.27 561.67 C 1141.23 561.67 1144 560.81 1146.35 559.33 L 1153.47 566.55 C 1154.1 567.19 1154.94 567.55 1155.83 567.55 C 1156.73 567.55 1157.58 567.19 1158.21 566.55 C 1158.85 565.91 1159.2 565.05 1159.2 564.14 C 1159.2 563.23 1158.85 562.37 1158.22 561.73 Z" fill="#ffffff" stroke="none" pointer-events="all"/></g><g><g transform="scale(0.9999999999999999)"><text x="1140" y="590" fill="#232F3E" font-family="Helvetica" font-size="10px" text-anchor="middle"><tspan x="1140">Amazon Athena</tspan><tspan x="1140" dy="1.2em" font-style="italic">EXTERNAL TABLES</tspan></text></g></g></g></g><g data-cell-id="glue-catalog-group"><g transform="translate(0.5,0.5)"><rect x="1340" y="340" width="120" height="120" rx="18" ry="18" fill="#ede7f6" stroke="#8c4fff" stroke-width="1.5" pointer-events="all"/></g><g><g transform="scale(0.9999999999999999)"><text x="1400" y="359" fill="#8C4FFF" font-family="Helvetica" font-size="12px" text-anchor="middle"><tspan x="1400" font-weight="bold">Catalog</tspan></text></g></g><g data-cell-id="svc-glue-catalog"><g transform="translate(0.5,0.5)"><path d="M 1376 370 L 1424 370 L 1424 418 L 1376 418 Z" fill="#8c4fff" stroke="none" pointer-events="all"/><path d="M 1395.02 381.91 L 1396.44 381.91 L 1396.44 380.49 L 1395.02 380.49 Z M 1393.6 382.62 L 1393.6 379.78 C 1393.6 379.39 1393.92 379.07 1394.31 379.07 L 1397.16 379.07 C 1397.55 379.07 1397.87 379.39 1397.87 379.78 L 1397.87 382.62 C 1397.87 383.01 1397.55 383.33 1397.16 383.33 L 1394.31 383.33 C 1393.92 383.33 1393.6 383.01 1393.6 382.62 Z M 1400.71 377.64 L 1402.13 377.64 L 1402.13 376.22 L 1400.71 376.22 Z M 1399.29 378.36 L 1399.29 375.51 C 1399.29 375.12 1399.61 374.8 1400 374.8 L 1402.84 374.8 C 1403.24 374.8 1403.56 375.12 1403.56 375.51 L 1403.56 378.36 C 1403.56 378.75 1403.24 379.07 1402.84 379.07 L 1400 379.07 C 1399.61 379.07 1399.29 378.75 1399.29 378.36 Z M 1402.13 384.76 L 1403.56 384.76 L 1403.56 383.33 L 1402.13 383.33 Z M 1401.42 381.91 L 1404.27 381.91 C 1404.66 381.91 1404.98 382.23 1404.98 382.62 L 1404.98 385.47 C 1404.98 385.86 1404.66 386.18 1404.27 386.18 L 1401.42 386.18 C 1401.03 386.18 1400.71 385.86 1400.71 385.47 L 1400.71 382.62 C 1400.71 382.23 1401.03 381.91 1401.42 381.91 Z M 1400 389.38 C 1398.75 389.38 1394.21 389.32 1391.25 388.6 L 1398.47 400.02 C 1398.54 400.13 1398.58 400.27 1398.58 400.4 L 1398.58 402.02 C 1399.58 402.31 1400.5 402.31 1401.42 402.03 L 1401.42 400.4 C 1401.42 400.27 1401.46 400.13 1401.53 400.02 L 1408.75 388.6 C 1405.79 389.32 1401.25 389.38 1400 389.38 Z M 1388.8 387.38 C 1388.69 387.22 1388.62 387.04 1388.62 386.84 C 1388.62 384.82 1395.3 384.45 1399.27 384.4 L 1399.29 385.83 C 1394.4 385.88 1391.42 386.44 1390.36 386.85 C 1391.48 387.32 1394.77 387.96 1400 387.96 C 1405.22 387.96 1408.5 387.32 1409.63 386.86 C 1409.17 386.67 1408.22 386.4 1406.31 386.16 L 1406.49 384.75 C 1410.8 385.28 1411.38 386.1 1411.38 386.84 C 1411.38 387.04 1411.31 387.22 1411.2 387.38 L 1402.84 400.61 L 1402.84 402.53 C 1402.84 402.82 1402.67 403.09 1402.4 403.19 C 1401.62 403.5 1400.84 403.66 1400.05 403.66 C 1399.26 403.66 1398.45 403.51 1397.62 403.2 C 1397.34 403.1 1397.16 402.83 1397.16 402.53 L 1397.16 400.61 Z M 1404.92 407.95 C 1405.03 408.22 1404.97 408.52 1404.77 408.72 L 1400.5 412.99 C 1400.36 413.13 1400.18 413.2 1400 413.2 C 1399.82 413.2 1399.64 413.13 1399.5 412.99 L 1395.23 408.72 C 1395.03 408.52 1394.97 408.22 1395.08 407.95 C 1395.19 407.68 1395.45 407.51 1395.73 407.51 L 1397.87 407.51 L 1397.87 405.38 L 1399.29 405.38 L 1399.29 408.22 C 1399.29 408.61 1398.97 408.93 1398.58 408.93 L 1397.45 408.93 L 1400 411.48 L 1402.55 408.93 L 1401.42 408.93 C 1401.03 408.93 1400.71 408.61 1400.71 408.22 L 1400.71 405.38 L 1402.13 405.38 L 1402.13 407.51 L 1404.27 407.51 C 1404.55 407.51 1404.81 407.68 1404.92 407.95 Z" fill="#ffffff" stroke="none" pointer-events="all"/></g><g><g transform="scale(0.9999999999999999)"><text x="1400" y="435" fill="#232F3E" font-family="Helvetica" font-size="10px" text-anchor="middle"><tspan x="1400">AWS Glue</tspan><tspan x="1400" dy="1.2em" font-style="italic">Data Catalog</tspan></text></g></g></g></g><g data-cell-id="catalog-tables"><g transform="translate(0.5,0.5)"><rect x="1316" y="460" width="180" height="20" fill="none" stroke="none" pointer-events="all"/></g><g><g transform="scale(0.9999999999999999)"><text x="1406" y="476" fill="#8C4FFF" font-family="Helvetica" font-size="9px" text-anchor="middle"><tspan x="1406" font-weight="bold">coin_data</tspan><tspan xml:space="preserve"> |</tspan><tspan font-weight="bold" xml:space="preserve"> market_data</tspan><tspan xml:space="preserve"> |</tspan><tspan font-weight="bold" xml:space="preserve"> price_data</tspan></text></g></g></g><g data-cell-id="athena-group"><g transform="translate(0.5,0.5)"><rect x="1540" y="340" width="120" height="120" rx="18" ry="18" fill="#ede7f6" stroke="#8c4fff" stroke-width="1.5" pointer-events="all"/></g><g><g transform="scale(0.9999999999999999)"><text x="1600" y="359" fill="#8C4FFF" font-family="Helvetica" font-size="12px" text-anchor="middle"><tspan x="1600" font-weight="bold">Query</tspan></text></g></g><g data-cell-id="svc-athena"><g transform="translate(0.5,0.5)"><path d="M 1576 370 L 1624 370 L 1624 418 L 1576 418 Z" fill="#8c4fff" stroke="none" pointer-events="all"/><path d="M 1598.56 385.36 C 1601.49 385.36 1603.09 386.02 1603.38 386.35 C 1603.09 386.67 1601.49 387.33 1598.56 387.33 C 1595.64 387.33 1594.04 386.67 1593.75 386.35 C 1594.04 386.02 1595.64 385.36 1598.56 385.36 Z M 1598.23 390.6 C 1598.12 390.55 1598.05 390.44 1598.05 390.31 C 1598.05 390.13 1598.2 389.98 1598.38 389.98 C 1598.43 389.98 1598.48 389.99 1598.52 390.02 Z M 1602 396.01 C 1601.95 396.05 1601.84 396.13 1601.61 396.22 C 1601.4 396.3 1601.16 396.37 1600.89 396.44 C 1600.16 396.61 1599.27 396.7 1598.38 396.7 C 1596.42 396.7 1595.05 396.28 1594.76 396.02 L 1593.89 387.92 C 1595.22 388.46 1597.18 388.64 1598.56 388.64 C 1599.92 388.64 1601.84 388.46 1603.17 387.94 L 1602.65 391.5 C 1601.67 391.14 1600.45 390.6 1599.3 390.04 C 1599.18 389.63 1598.81 389.33 1598.38 389.33 C 1597.84 389.33 1597.41 389.77 1597.41 390.31 C 1597.41 390.85 1597.84 391.29 1598.38 391.29 C 1598.5 391.29 1598.62 391.26 1598.73 391.22 C 1600.35 392.02 1601.55 392.53 1602.46 392.84 Z M 1592.43 386.42 L 1593.48 396.18 C 1593.55 397.99 1598.18 398.01 1598.38 398.01 C 1599.37 398.01 1600.36 397.91 1601.18 397.72 C 1601.52 397.64 1601.82 397.54 1602.08 397.44 C 1602.85 397.13 1603.25 396.71 1603.27 396.2 L 1603.71 393.2 C 1604.01 393.26 1604.25 393.29 1604.44 393.29 C 1605.05 393.29 1605.21 393.04 1605.32 392.87 C 1605.44 392.69 1605.47 392.47 1605.42 392.24 C 1605.29 391.73 1604.57 391.05 1604.08 390.65 L 1604.69 386.44 L 1604.69 386.44 C 1604.69 386.41 1604.7 386.38 1604.7 386.35 C 1604.7 384.53 1600.84 384.05 1598.56 384.05 C 1596.28 384.05 1592.43 384.53 1592.43 386.35 C 1592.43 386.37 1592.44 386.39 1592.44 386.42 Z M 1598.27 380.7 C 1603.9 380.7 1608.48 385.35 1608.48 391.06 C 1608.48 396.78 1603.9 401.43 1598.27 401.43 C 1592.63 401.43 1588.05 396.78 1588.05 391.06 C 1588.05 385.35 1592.63 380.7 1598.27 380.7 Z M 1582.09 394.87 L 1582.09 396.18 L 1587.91 396.18 L 1587.91 396.1 C 1589.76 400.02 1593.7 402.74 1598.27 402.74 C 1604.61 402.74 1609.77 397.5 1609.77 391.06 C 1609.77 384.62 1604.61 379.39 1598.27 379.39 C 1593.33 379.39 1589.12 382.56 1587.49 387 L 1582.09 387 L 1582.09 388.31 L 1587.1 388.31 C 1586.9 389.16 1586.78 390.03 1586.77 390.93 L 1580.8 390.93 L 1580.8 392.25 L 1586.82 392.25 C 1586.91 393.16 1587.12 394.03 1587.4 394.87 Z M 1617.3 410.62 C 1616.52 411.41 1615.16 411.42 1614.38 410.63 L 1607.44 403.58 C 1608.56 402.74 1609.55 401.74 1610.41 400.62 L 1617.31 407.66 C 1617.69 408.05 1617.91 408.58 1617.91 409.14 C 1617.91 409.7 1617.69 410.22 1617.3 410.62 Z M 1618.22 406.73 L 1611.17 399.54 C 1612.73 397.1 1613.64 394.19 1613.64 391.06 C 1613.64 382.45 1606.74 375.45 1598.27 375.45 C 1592.17 375.45 1586.65 379.11 1584.19 384.77 L 1585.37 385.3 C 1587.62 380.11 1592.68 376.76 1598.27 376.76 C 1606.03 376.76 1612.35 383.18 1612.35 391.06 C 1612.35 398.94 1606.03 405.36 1598.27 405.36 C 1593.08 405.36 1588.32 402.48 1585.86 397.84 L 1584.72 398.46 C 1587.41 403.52 1592.6 406.67 1598.27 406.67 C 1601.23 406.67 1604 405.81 1606.35 404.33 L 1613.47 411.55 C 1614.1 412.19 1614.94 412.55 1615.83 412.55 C 1616.73 412.55 1617.58 412.19 1618.21 411.55 C 1618.85 410.91 1619.2 410.05 1619.2 409.14 C 1619.2 408.23 1618.85 407.37 1618.22 406.73 Z" fill="#ffffff" stroke="none" pointer-events="all"/></g><g><g transform="scale(0.9999999999999999)"><text x="1600" y="435" fill="#232F3E" font-family="Helvetica" font-size="10px" text-anchor="middle"><tspan x="1600">Amazon Athena</tspan><tspan x="1600" dy="1.2em" font-style="italic">serverless SQL</tspan></text></g></g></g></g><g data-cell-id="edge-1"><g transform="translate(0.5,0.5)"><path d="M 300 240 L 300 332.7" fill="none" stroke="#232f3e" stroke-width="1.5" stroke-miterlimit="10" pointer-events="stroke"/><path d="M 300 338.32 L 296.25 330.82 L 300 332.7 L 303.75 330.82 Z" fill="#232f3e" stroke="#232f3e" stroke-width="1.5" stroke-miterlimit="10" pointer-events="all"/></g><g data-cell-id="edge-1-label"><g><g transform="scale(0.9999999999999999)"><text x="333" y="292" fill="#000000" font-family="Helvetica" font-size="11px" text-anchor="middle"><tspan x="333">triggers</tspan></text></g></g></g></g><g data-cell-id="edge-2"><g transform="translate(0.5,0.5)"><path d="M 137.3 400 L 232.7 400" fill="none" stroke="#232f3e" stroke-width="1.5" stroke-miterlimit="10" pointer-events="stroke"/><path d="M 131.68 400 L 139.18 396.25 L 137.3 400 L 139.18 403.75 Z" fill="none" stroke="#232f3e" stroke-width="1.5" stroke-miterlimit="10" pointer-events="all"/><path d="M 238.32 400 L 230.82 403.75 L 232.7 400 L 230.82 396.25 Z" fill="#232f3e" stroke="#232f3e" stroke-width="1.5" stroke-miterlimit="10" pointer-events="all"/></g><g data-cell-id="edge-2-label"><g><g transform="scale(0.9999999999999999)"><text x="185" y="392" fill="#000000" font-family="Helvetica" font-size="11px" text-anchor="middle"><tspan x="185">fetches data</tspan></text></g></g></g></g><g data-cell-id="edge-3"><g transform="translate(0.5,0.5)"><path d="M 360 400 L 432.7 400" fill="none" stroke="#232f3e" stroke-width="1.5" stroke-miterlimit="10" pointer-events="stroke"/><path d="M 438.32 400 L 430.82 403.75 L 432.7 400 L 430.82 396.25 Z" fill="#232f3e" stroke="#232f3e" stroke-width="1.5" stroke-miterlimit="10" pointer-events="all"/></g><g data-cell-id="edge-3-label"><g><g transform="scale(0.9999999999999999)"><text x="401" y="392" fill="#000000" font-family="Helvetica" font-size="11px" text-anchor="middle"><tspan x="401">writes JSON</tspan></text></g></g></g></g><g data-cell-id="edge-4"><g transform="translate(0.5,0.5)"><path d="M 560 400 L 632.7 400" fill="none" stroke="#232f3e" stroke-width="1.5" stroke-miterlimit="10" pointer-events="stroke"/><path d="M 638.32 400 L 630.82 403.75 L 632.7 400 L 630.82 396.25 Z" fill="#232f3e" stroke="#232f3e" stroke-width="1.5" stroke-miterlimit="10" pointer-events="all"/></g><g data-cell-id="edge-4-label"><g><g transform="scale(0.9999999999999999)"><text x="601" y="392" fill="#000000" font-family="Helvetica" font-size="11px" text-anchor="middle" font-style="italic"><tspan x="601">fires event</tspan></text></g></g></g></g><g data-cell-id="edge-5"><g transform="translate(0.5,0.5)"><path d="M 760 400 L 832.7 400" fill="none" stroke="#232f3e" stroke-width="1.5" stroke-miterlimit="10" pointer-events="stroke"/><path d="M 838.32 400 L 830.82 403.75 L 832.7 400 L 830.82 396.25 Z" fill="#232f3e" stroke="#232f3e" stroke-width="1.5" stroke-miterlimit="10" pointer-events="all"/></g><g data-cell-id="edge-5-label"><g><g transform="scale(0.9999999999999999)"><text x="801" y="392" fill="#000000" font-family="Helvetica" font-size="11px" text-anchor="middle"><tspan x="801">writes CSVs</tspan></text></g></g></g></g><g data-cell-id="edge-6a"><g transform="translate(0.5,0.5)"><path d="M 900 340 L 900 290 Q 900 280 910 280 L 1072.7 280" fill="none" stroke="#232f3e" stroke-width="1.5" stroke-miterlimit="10" pointer-events="stroke"/><path d="M 1078.32 280 L 1070.82 283.75 L 1072.7 280 L 1070.82 276.25 Z" fill="#232f3e" stroke="#232f3e" stroke-width="1.5" stroke-miterlimit="10" pointer-events="all"/></g><g data-cell-id="edge-6a-label"><g><g transform="scale(0.9999999999999999)"><text x="1006" y="267" fill="#000000" font-family="Helvetica" font-size="11px" text-anchor="middle"><tspan x="1006">crawls</tspan></text></g></g></g></g><g data-cell-id="edge-6b"><g transform="translate(0.5,0.5)"><path d="M 900 460 L 900 545.05 Q 900 555.05 910 555.05 L 1072.7 555" fill="none" stroke="#232f3e" stroke-width="1.5" stroke-miterlimit="10" pointer-events="stroke"/><path d="M 1078.32 555 L 1070.82 558.75 L 1072.7 555 L 1070.82 551.25 Z" fill="#232f3e" stroke="#232f3e" stroke-width="1.5" stroke-miterlimit="10" pointer-events="all"/></g><g data-cell-id="edge-6b-label"><g><g transform="scale(0.9999999999999999)"><text x="1019" y="572" fill="#000000" font-family="Helvetica" font-size="11px" text-anchor="middle"><tspan x="1019">defines schema</tspan></text></g></g></g></g><g data-cell-id="edge-7a"><g transform="translate(0.5,0.5)"><path d="M 1200 280 L 1260 280 Q 1270 280 1270 290 L 1270 360 Q 1270 370 1280 370 L 1332.7 370" fill="none" stroke="#232f3e" stroke-width="1.5" stroke-miterlimit="10" pointer-events="stroke"/><path d="M 1338.32 370 L 1330.82 373.75 L 1332.7 370 L 1330.82 366.25 Z" fill="#232f3e" stroke="#232f3e" stroke-width="1.5" stroke-miterlimit="10" pointer-events="all"/></g><g data-cell-id="edge-7a-label"><g><g transform="scale(0.9999999999999999)"><text x="1239" y="270" fill="#000000" font-family="Helvetica" font-size="11px" text-anchor="middle"><tspan x="1239">registers in</tspan></text></g></g></g></g><g data-cell-id="edge-7b"><g transform="translate(0.5,0.5)"><path d="M 1200 555 L 1260 555.05 Q 1270 555.05 1270 545.05 L 1270 440 Q 1270 430 1280 430 L 1332.7 430" fill="none" stroke="#232f3e" stroke-width="1.5" stroke-miterlimit="10" pointer-events="stroke"/><path d="M 1338.32 430 L 1330.82 433.75 L 1332.7 430 L 1330.82 426.25 Z" fill="#232f3e" stroke="#232f3e" stroke-width="1.5" stroke-miterlimit="10" pointer-events="all"/></g><g data-cell-id="edge-7b-label"><g><g transform="scale(0.9999999999999999)"><text x="1241" y="569" fill="#000000" font-family="Helvetica" font-size="11px" text-anchor="middle"><tspan x="1241">registers in</tspan></text></g></g></g></g><g data-cell-id="edge-8"><g transform="translate(0.5,0.5)"><path d="M 1460 400 L 1532.7 400" fill="none" stroke="#232f3e" stroke-width="1.5" stroke-miterlimit="10" pointer-events="stroke"/><path d="M 1538.32 400 L 1530.82 403.75 L 1532.7 400 L 1530.82 396.25 Z" fill="#232f3e" stroke="#232f3e" stroke-width="1.5" stroke-miterlimit="10" pointer-events="all"/></g><g data-cell-id="edge-8-label"><g><g transform="scale(0.9999999999999999)"><text x="1501" y="392" fill="#000000" font-family="Helvetica" font-size="11px" text-anchor="middle"><tspan x="1501">schema lookup</tspan></text></g></g></g></g><g data-cell-id="edge-9"><g transform="translate(0.5,0.5)"><path d="M 1600 340 L 1600 160 Q 1600 150 1590 150 L 910 150 Q 900 150 900 160 L 900 332.7" fill="none" stroke="#232f3e" stroke-width="1.5" stroke-miterlimit="10" stroke-dasharray="12 12" pointer-events="stroke"/><path d="M 900 338.32 L 896.25 330.82 L 900 332.7 L 903.75 330.82 Z" fill="#232f3e" stroke="#232f3e" stroke-width="1.5" stroke-miterlimit="10" pointer-events="all"/></g><g data-cell-id="edge-9-label"><g><g transform="scale(0.9999999999999999)"><text x="1251" y="142" fill="#000000" font-family="Helvetica" font-size="11px" text-anchor="middle" font-style="italic"><tspan x="1251">reads S3 in-place</tspan></text></g></g></g></g><g data-cell-id="step-1"><g><rect x="257" y="255" width="28" height="28" rx="4.2" ry="4.2" fill="#007cbd" stroke="#000000" stroke-width="2" pointer-events="all"/></g><g><g transform="scale(0.9999999999999999)"><text x="271" y="274" fill="#FFFFFF" font-family="Helvetica" font-size="16px" text-anchor="middle"><tspan x="271" font-weight="bold">1</tspan></text></g></g></g><g data-cell-id="step-2"><g><rect x="148" y="410" width="28" height="28" rx="4.2" ry="4.2" fill="#007cbd" stroke="#000000" stroke-width="2" pointer-events="all"/></g><g><g transform="scale(0.9999999999999999)"><text x="162" y="429" fill="#FFFFFF" font-family="Helvetica" font-size="16px" text-anchor="middle"><tspan x="162" font-weight="bold">2</tspan></text></g></g></g><g data-cell-id="step-3"><g><rect x="368" y="410" width="28" height="28" rx="4.2" ry="4.2" fill="#007cbd" stroke="#000000" stroke-width="2" pointer-events="all"/></g><g><g transform="scale(0.9999999999999999)"><text x="382" y="429" fill="#FFFFFF" font-family="Helvetica" font-size="16px" text-anchor="middle"><tspan x="382" font-weight="bold">3</tspan></text></g></g></g><g data-cell-id="step-4"><g><rect x="568" y="410" width="28" height="28" rx="4.2" ry="4.2" fill="#007cbd" stroke="#000000" stroke-width="2" pointer-events="all"/></g><g><g transform="scale(0.9999999999999999)"><text x="582" y="429" fill="#FFFFFF" font-family="Helvetica" font-size="16px" text-anchor="middle"><tspan x="582" font-weight="bold">4</tspan></text></g></g></g><g data-cell-id="step-5"><g><rect x="768" y="410" width="28" height="28" rx="4.2" ry="4.2" fill="#007cbd" stroke="#000000" stroke-width="2" pointer-events="all"/></g><g><g transform="scale(0.9999999999999999)"><text x="782" y="429" fill="#FFFFFF" font-family="Helvetica" font-size="16px" text-anchor="middle"><tspan x="782" font-weight="bold">5</tspan></text></g></g></g><g data-cell-id="step-6"><g><rect x="1029" y="287" width="28" height="28" rx="4.2" ry="4.2" fill="#007cbd" stroke="#000000" stroke-width="2" pointer-events="all"/></g><g><g transform="scale(0.9999999999999999)"><text x="1043" y="306" fill="#FFFFFF" font-family="Helvetica" font-size="16px" text-anchor="middle"><tspan x="1043" font-weight="bold">6</tspan></text></g></g></g><g data-cell-id="step-7"><g><rect x="1290" y="330" width="28" height="28" rx="4.2" ry="4.2" fill="#007cbd" stroke="#000000" stroke-width="2" pointer-events="all"/></g><g><g transform="scale(0.9999999999999999)"><text x="1304" y="349" fill="#FFFFFF" font-family="Helvetica" font-size="16px" text-anchor="middle"><tspan x="1304" font-weight="bold">7</tspan></text></g></g></g><g data-cell-id="step-8"><g><rect x="1468" y="410" width="28" height="28" rx="4.2" ry="4.2" fill="#007cbd" stroke="#000000" stroke-width="2" pointer-events="all"/></g><g><g transform="scale(0.9999999999999999)"><text x="1482" y="429" fill="#FFFFFF" font-family="Helvetica" font-size="16px" text-anchor="middle"><tspan x="1482" font-weight="bold">8</tspan></text></g></g></g><g data-cell-id="legend-bg"><g transform="translate(0.5,80.5)"><path d="M 1760 0 L 2410 0 L 2410 660 L 1760 660 L 1760 0 Z" fill="#edf3ff" stroke="none" pointer-events="all"/><path d="M 1765 5 L 1765 655 L 1765 655 L 2405 655 L 2405 5 L 1765 5" fill="none" stroke="none" pointer-events="all"/><path d="M 1760 0 L 2410 0 L 2410 660 L 1760 660 L 1760 0 Z" fill="none" stroke="#6c8ebf" stroke-miterlimit="10" pointer-events="all"/></g></g><g data-cell-id="legend-container" transform="translate(0, 80)"><g transform="translate(0.5,0.5)"/><g data-cell-id="step-1-legend"><g transform="translate(0.5,0.5)"/><g data-cell-id="step-1-badge-legend"><g><rect x="1780" y="32" width="40" height="38" rx="5.7" ry="5.7" fill="#007cbd" stroke="#000000" stroke-width="2" pointer-events="all"/></g><g><g transform="scale(0.9999999999999999)"><text x="1800" y="58" fill="#FFFFFF" font-family="Helvetica" font-size="22px" text-anchor="middle"><tspan x="1800" font-weight="bold">1</tspan></text></g></g></g><g data-cell-id="step-1-desc"><g transform="translate(0.5,0.5)"><rect x="1832" y="30" width="548" height="70" fill="none" stroke="none" pointer-events="all"/></g><g><g transform="scale(0.9999999999999999)"><text x="1834" y="47" fill="#000000" font-family="Helvetica" font-size="14px"><tspan x="1834" font-weight="bold">EventBridge Schedule</tspan><tspan x="1834" dy="1.2em" font-weight="bold">-</tspan><tspan xml:space="preserve"> Triggers Extract Lambda every 5 minutes</tspan></text></g></g></g></g><g data-cell-id="step-2-legend"><g transform="translate(0.5,0.5)"/><g data-cell-id="step-2-badge-legend"><g><rect x="1780" y="107" width="40" height="38" rx="5.7" ry="5.7" fill="#007cbd" stroke="#000000" stroke-width="2" pointer-events="all"/></g><g><g transform="scale(0.9999999999999999)"><text x="1800" y="133" fill="#FFFFFF" font-family="Helvetica" font-size="22px" text-anchor="middle"><tspan x="1800" font-weight="bold">2</tspan></text></g></g></g><g data-cell-id="step-2-desc"><g transform="translate(0.5,0.5)"><rect x="1832" y="105" width="548" height="70" fill="none" stroke="none" pointer-events="all"/></g><g><g transform="scale(0.9999999999999999)"><text x="1834" y="122" fill="#000000" font-family="Helvetica" font-size="14px"><tspan x="1834" font-weight="bold">API Data Fetch</tspan><tspan x="1834" dy="1.2em" font-weight="bold">-</tspan><tspan xml:space="preserve"> Extract Lambda calls CoinGecko API for top 50 crypto market data</tspan></text></g></g></g></g><g data-cell-id="step-3-legend"><g transform="translate(0.5,0.5)"/><g data-cell-id="step-3-badge-legend"><g><rect x="1780" y="182" width="40" height="38" rx="5.7" ry="5.7" fill="#007cbd" stroke="#000000" stroke-width="2" pointer-events="all"/></g><g><g transform="scale(0.9999999999999999)"><text x="1800" y="208" fill="#FFFFFF" font-family="Helvetica" font-size="22px" text-anchor="middle"><tspan x="1800" font-weight="bold">3</tspan></text></g></g></g><g data-cell-id="step-3-desc"><g transform="translate(0.5,0.5)"><rect x="1832" y="180" width="548" height="70" fill="none" stroke="none" pointer-events="all"/></g><g><g transform="scale(0.9999999999999999)"><text x="1834" y="197" fill="#000000" font-family="Helvetica" font-size="14px"><tspan x="1834" font-weight="bold">Raw Storage</tspan><tspan x="1834" dy="1.2em" font-weight="bold">-</tspan><tspan xml:space="preserve"> Raw JSON saved to S3 raw_data/to_process/</tspan></text></g></g></g></g><g data-cell-id="step-4-legend"><g transform="translate(0.5,0.5)"/><g data-cell-id="step-4-badge-legend"><g><rect x="1780" y="257" width="40" height="38" rx="5.7" ry="5.7" fill="#007cbd" stroke="#000000" stroke-width="2" pointer-events="all"/></g><g><g transform="scale(0.9999999999999999)"><text x="1800" y="283" fill="#FFFFFF" font-family="Helvetica" font-size="22px" text-anchor="middle"><tspan x="1800" font-weight="bold">4</tspan></text></g></g></g><g data-cell-id="step-4-desc"><g transform="translate(0.5,0.5)"><rect x="1832" y="255" width="548" height="70" fill="none" stroke="none" pointer-events="all"/></g><g><g transform="scale(0.9999999999999999)"><text x="1834" y="272" fill="#000000" font-family="Helvetica" font-size="14px"><tspan x="1834" font-weight="bold">Event-Driven Transform</tspan><tspan x="1834" dy="1.2em" font-weight="bold">-</tspan><tspan xml:space="preserve"> S3 event triggers Transform Lambda, normalizes into 3 CSVs</tspan></text></g></g></g></g><g data-cell-id="step-5-legend"><g transform="translate(0.5,0.5)"/><g data-cell-id="step-5-badge-legend"><g><rect x="1780" y="332" width="40" height="38" rx="5.7" ry="5.7" fill="#007cbd" stroke="#000000" stroke-width="2" pointer-events="all"/></g><g><g transform="scale(0.9999999999999999)"><text x="1800" y="358" fill="#FFFFFF" font-family="Helvetica" font-size="22px" text-anchor="middle"><tspan x="1800" font-weight="bold">5</tspan></text></g></g></g><g data-cell-id="step-5-desc"><g transform="translate(0.5,0.5)"><rect x="1832" y="330" width="548" height="70" fill="none" stroke="none" pointer-events="all"/></g><g><g transform="scale(0.9999999999999999)"><text x="1834" y="347" fill="#000000" font-family="Helvetica" font-size="14px"><tspan x="1834" font-weight="bold">CSV Storage</tspan><tspan x="1834" dy="1.2em" font-weight="bold">-</tspan><tspan xml:space="preserve"> 3 CSV tables: coin_data/, market_data/, price_data/</tspan></text></g></g></g></g><g data-cell-id="step-6-legend"><g transform="translate(0.5,0.5)"/><g data-cell-id="step-6-badge-legend"><g><rect x="1780" y="407" width="40" height="38" rx="5.7" ry="5.7" fill="#007cbd" stroke="#000000" stroke-width="2" pointer-events="all"/></g><g><g transform="scale(0.9999999999999999)"><text x="1800" y="433" fill="#FFFFFF" font-family="Helvetica" font-size="22px" text-anchor="middle"><tspan x="1800" font-weight="bold">6</tspan></text></g></g></g><g data-cell-id="step-6-desc"><g transform="translate(0.5,0.5)"><rect x="1832" y="405" width="548" height="70" fill="none" stroke="none" pointer-events="all"/></g><g><g transform="scale(0.9999999999999999)"><text x="1834" y="422" fill="#000000" font-family="Helvetica" font-size="14px"><tspan x="1834" font-weight="bold">Schema Registration (2 approaches)</tspan><tspan x="1834" dy="1.2em" font-weight="bold">-</tspan><tspan xml:space="preserve"> Approach 1: Glue Crawler auto-detects schema from CSVs</tspan><tspan x="1834" dy="1.2em" font-weight="bold">-</tspan><tspan xml:space="preserve"> Approach 2: Athena DDL defines schema explicitly (recommended)</tspan></text></g></g></g></g><g data-cell-id="step-7-legend"><g transform="translate(0.5,0.5)"/><g data-cell-id="step-7-badge-legend"><g><rect x="1780" y="482" width="40" height="38" rx="5.7" ry="5.7" fill="#007cbd" stroke="#000000" stroke-width="2" pointer-events="all"/></g><g><g transform="scale(0.9999999999999999)"><text x="1800" y="508" fill="#FFFFFF" font-family="Helvetica" font-size="22px" text-anchor="middle"><tspan x="1800" font-weight="bold">7</tspan></text></g></g></g><g data-cell-id="step-7-desc"><g transform="translate(0.5,0.5)"><rect x="1832" y="480" width="548" height="70" fill="none" stroke="none" pointer-events="all"/></g><g><g transform="scale(0.9999999999999999)"><text x="1834" y="497" fill="#000000" font-family="Helvetica" font-size="14px"><tspan x="1834" font-weight="bold">Data Catalog</tspan><tspan x="1834" dy="1.2em" font-weight="bold">-</tspan><tspan xml:space="preserve"> Both approaches register 3 tables in Glue Data Catalog (coingecko_db)</tspan></text></g></g></g></g><g data-cell-id="step-8-legend"><g transform="translate(0.5,0.5)"/><g data-cell-id="step-8-badge-legend"><g><rect x="1780" y="557" width="40" height="38" rx="5.7" ry="5.7" fill="#007cbd" stroke="#000000" stroke-width="2" pointer-events="all"/></g><g><g transform="scale(0.9999999999999999)"><text x="1800" y="583" fill="#FFFFFF" font-family="Helvetica" font-size="22px" text-anchor="middle"><tspan x="1800" font-weight="bold">8</tspan></text></g></g></g><g data-cell-id="step-8-desc"><g transform="translate(0.5,0.5)"><rect x="1832" y="555" width="548" height="70" fill="none" stroke="none" pointer-events="all"/></g><g><g transform="scale(0.9999999999999999)"><text x="1834" y="572" fill="#000000" font-family="Helvetica" font-size="14px"><tspan x="1834" font-weight="bold">Serverless Query</tspan><tspan x="1834" dy="1.2em" font-weight="bold">-</tspan><tspan xml:space="preserve"> Athena queries S3 data in-place via Data Catalog ($5/TB scanned)</tspan></text></g></g></g></g></g><g data-cell-id="s3-folders"><g transform="translate(0.5,0.5)"><rect x="780" y="465" width="180" height="20" fill="none" stroke="none" pointer-events="all"/></g><g><g transform="scale(0.9999999999999999)"><text x="870" y="481" fill="#3F8624" font-family="Helvetica" font-size="9px" text-anchor="middle"><tspan x="870" font-weight="bold">coin_data/</tspan><tspan xml:space="preserve"> |</tspan><tspan font-weight="bold" xml:space="preserve"> market_data/</tspan><tspan xml:space="preserve"> |</tspan><tspan font-weight="bold" xml:space="preserve"> price_data/</tspan></text></g></g></g></g></g></g></svg>